<svg xmlns="http://www.w3.org/2000/svg" xmlns:xlink="http://www.w3.org/1999/xlink" width="1024" zoomAndPan="magnify" viewBox="0 0 768 576" height="768" preserveAspectRatio="xMidYMid meet" version="1.2">
  <defs>
    <clipPath id="fac8cf1ea1">
      <rect x="0" width="768" y="0" height="576"/>
    </clipPath>
    <clipPath id="7f675e3ef8">
      <path d="M 0 0 L 319.5 0 L 319.5 360 L 0 360 Z M 0 0 "/>
    </clipPath>
  </defs>
  <g id="3026051ec8">
    <!-- Fondo naranja principal -->
    <g transform="matrix(1,0,0,1,0,-0.000000000000014788)">
      <g clip-path="url(#fac8cf1ea1)">
        <path style="stroke:none;fill-rule:nonzero;fill:#f7680c;fill-opacity:1;" d="M 0 0 L 767.25 0 L 767.25 576 L 0 576 Z M 0 0 "/>
      </g>
    </g>
    
    <!-- Texto "VOLA" en blanco -->
    <g style="fill:#ffffff;fill-opacity:1;">
      <g transform="translate(202.953918, 368.960601)">
        <path style="stroke:none" d="M -3.101562 -8.664062 C -3.101562 -11.53125 -2.792969 -14.625 -2.171875 -17.941406 C -1.585938 -21.085938 -0.851562 -24.292969 0.03125 -27.566406 C 0.886719 -30.742188 1.738281 -33.8125 2.59375 -36.773438 C 3.417969 -39.625 4.101562 -42.214844 4.648438 -44.542969 C 5.125 -46.582031 5.367188 -48.195312 5.367188 -49.378906 C 5.367188 -49.457031 5.328125 -49.621094 5.25 -49.871094 C 5.046875 -50.546875 4.84375 -51.1875 4.640625 -51.796875 L 2.714844 -57.578125 L 8.773438 -58.25 C 9.253906 -58.304688 9.734375 -58.34375 10.214844 -58.371094 C 10.695312 -58.398438 11.179688 -58.410156 11.660156 -58.410156 C 14.1875 -58.410156 16.578125 -57.972656 18.824219 -57.097656 C 21.394531 -56.097656 23.484375 -54.488281 25.089844 -52.277344 C 26.761719 -49.980469 27.597656 -47.105469 27.597656 -43.648438 C 27.597656 -41.800781 27.261719 -39.699219 26.597656 -37.351562 C 26.035156 -35.375 25.355469 -33.164062 24.550781 -30.714844 C 23.796875 -28.410156 23.050781 -25.886719 22.3125 -23.148438 C 21.613281 -20.550781 21.082031 -17.761719 20.722656 -14.78125 L 15.832031 -15.375 L 15.832031 -20.300781 L 16.089844 -20.300781 C 15.167969 -20.300781 14.351562 -20.066406 13.640625 -19.597656 C 13.566406 -19.546875 13.5 -19.5 13.445312 -19.457031 L 13.457031 -19.464844 C 13.664062 -19.65625 13.980469 -19.992188 14.40625 -20.480469 C 15.4375 -21.652344 16.738281 -23.238281 18.316406 -25.234375 C 19.914062 -27.257812 21.628906 -29.511719 23.46875 -31.988281 C 25.324219 -34.496094 27.171875 -37.011719 29.007812 -39.539062 C 30.824219 -42.035156 32.464844 -44.367188 33.929688 -46.539062 C 35.378906 -48.679688 36.535156 -50.472656 37.402344 -51.914062 C 37.785156 -52.554688 38.058594 -53.042969 38.226562 -53.382812 C 38.25 -53.433594 38.269531 -53.476562 38.285156 -53.507812 L 38.285156 -53.511719 C 38.28125 -53.496094 38.273438 -53.480469 38.269531 -53.460938 C 38.136719 -53.089844 38.070312 -52.660156 38.070312 -52.179688 L 38.070312 -58.492188 L 44.191406 -56.960938 C 46.96875 -56.265625 49.339844 -54.953125 51.304688 -53.023438 C 53.609375 -50.753906 54.761719 -48.019531 54.761719 -44.820312 C 54.761719 -42.582031 54.074219 -40.058594 52.699219 -37.246094 C 51.554688 -34.914062 50.054688 -32.367188 48.191406 -29.59375 C 46.402344 -26.929688 44.433594 -24.191406 42.289062 -21.378906 C 40.191406 -18.625 38.085938 -15.894531 35.964844 -13.183594 L 30.046875 -5.574219 C 28.28125 -3.292969 26.824219 -1.277344 25.675781 0.464844 C 25.167969 1.234375 24.769531 1.902344 24.484375 2.460938 C 24.285156 2.851562 24.167969 3.121094 24.128906 3.28125 L 23.136719 7.242188 L 19.058594 7.003906 C 17.308594 6.898438 15.304688 6.589844 13.039062 6.074219 C 10.703125 5.539062 8.445312 4.765625 6.261719 3.75 C 3.8125 2.613281 1.753906 1.148438 0.0820312 -0.640625 C -2.042969 -2.914062 -3.101562 -5.585938 -3.101562 -8.664062 Z M 6.75 -8.664062 C 6.75 -8.179688 6.925781 -7.75 7.28125 -7.371094 C 8.082031 -6.511719 9.128906 -5.785156 10.417969 -5.183594 C 11.96875 -4.460938 13.574219 -3.910156 15.234375 -3.535156 C 16.964844 -3.136719 18.433594 -2.90625 19.636719 -2.832031 L 19.347656 2.085938 L 14.566406 0.890625 C 14.964844 -0.695312 15.925781 -2.644531 17.449219 -4.957031 C 18.734375 -6.90625 20.339844 -9.128906 22.265625 -11.625 L 28.203125 -19.257812 C 30.296875 -21.933594 32.378906 -24.628906 34.453125 -27.351562 C 36.476562 -30.007812 38.332031 -32.589844 40.015625 -35.09375 C 41.625 -37.492188 42.902344 -39.652344 43.847656 -41.578125 C 44.554688 -43.023438 44.910156 -44.105469 44.910156 -44.820312 C 44.910156 -45.066406 44.875 -45.269531 44.800781 -45.4375 C 44.726562 -45.617188 44.589844 -45.804688 44.394531 -45.996094 C 43.707031 -46.671875 42.84375 -47.140625 41.800781 -47.402344 L 42.996094 -52.179688 L 47.921875 -52.179688 C 47.921875 -51.25 47.640625 -50.207031 47.082031 -49.058594 C 46.789062 -48.464844 46.382812 -47.726562 45.851562 -46.84375 C 44.894531 -45.25 43.640625 -43.304688 42.09375 -41.015625 C 40.5625 -38.757812 38.859375 -36.332031 36.980469 -33.75 C 35.128906 -31.195312 33.261719 -28.652344 31.382812 -26.121094 C 29.488281 -23.5625 27.707031 -21.230469 26.050781 -19.128906 C 24.367188 -17 22.957031 -15.285156 21.8125 -13.980469 C 21.15625 -13.230469 20.59375 -12.640625 20.125 -12.210938 C 19.765625 -11.878906 19.417969 -11.605469 19.085938 -11.382812 C 18.144531 -10.757812 17.144531 -10.445312 16.089844 -10.445312 L 10.269531 -10.445312 L 10.9375 -15.96875 C 11.359375 -19.414062 11.976562 -22.660156 12.800781 -25.710938 C 13.582031 -28.617188 14.378906 -31.308594 15.1875 -33.78125 C 15.949219 -36.105469 16.589844 -38.195312 17.117188 -40.042969 C 17.535156 -41.511719 17.742188 -42.714844 17.742188 -43.648438 C 17.742188 -44.96875 17.535156 -45.914062 17.121094 -46.480469 C 16.644531 -47.136719 16.019531 -47.613281 15.246094 -47.914062 C 14.148438 -48.34375 12.953125 -48.558594 11.660156 -48.558594 C 11.359375 -48.558594 11.0625 -48.546875 10.761719 -48.53125 C 10.460938 -48.515625 10.160156 -48.488281 9.859375 -48.457031 L 9.316406 -53.355469 L 13.988281 -54.910156 C 14.222656 -54.21875 14.453125 -53.492188 14.683594 -52.730469 C 15.039062 -51.546875 15.21875 -50.429688 15.21875 -49.378906 C 15.21875 -47.4375 14.894531 -45.074219 14.242188 -42.296875 C 13.660156 -39.804688 12.933594 -37.050781 12.0625 -34.039062 C 11.222656 -31.136719 10.386719 -28.125 9.546875 -25.007812 C 8.734375 -21.980469 8.054688 -19.023438 7.515625 -16.128906 C 7.003906 -13.410156 6.75 -10.921875 6.75 -8.664062 Z M 6.75 -8.664062 "/>
      </g>
    </g>
    
    <!-- Texto "BARATO" en blanco -->
    <g style="fill:#ffffff;fill-opacity:1;">
      <g transform="translate(240.281843, 368.960601)">
        <path style="stroke:none" d="M -5.382812 -8.46875 C -5.382812 -10.351562 -4.914062 -12.578125 -3.976562 -15.144531 C -3.191406 -17.289062 -2.207031 -19.648438 -1.023438 -22.222656 L 2.425781 -29.742188 C 3.558594 -32.214844 4.5625 -34.578125 5.441406 -36.832031 L 6.660156 -39.976562 L 10.03125 -39.976562 C 10.101562 -39.976562 10.179688 -39.980469 10.269531 -39.988281 C 10.65625 -40.023438 11.035156 -40.039062 11.398438 -40.039062 C 14.136719 -40.039062 16.484375 -39.605469 18.441406 -38.738281 C 19.976562 -38.0625 21.171875 -37.082031 22.03125 -35.796875 C 22.917969 -34.472656 23.363281 -32.964844 23.363281 -31.269531 C 23.363281 -29.972656 22.921875 -28.316406 22.039062 -26.296875 C 21.390625 -24.816406 20.585938 -23.140625 19.628906 -21.269531 L 16.855469 -15.886719 C 15.988281 -14.210938 15.277344 -12.695312 14.726562 -11.339844 C 14.503906 -10.789062 14.34375 -10.324219 14.246094 -9.949219 C 14.210938 -9.824219 14.191406 -9.722656 14.179688 -9.644531 C 14.175781 -9.628906 14.175781 -9.625 14.175781 -9.621094 C 14.175781 -9.644531 14.175781 -9.671875 14.175781 -9.707031 C 14.175781 -9.972656 14.132812 -10.253906 14.042969 -10.550781 C 13.878906 -11.09375 13.601562 -11.585938 13.207031 -12.027344 C 12.761719 -12.519531 12.234375 -12.878906 11.621094 -13.105469 C 11.214844 -13.253906 10.816406 -13.332031 10.421875 -13.332031 C 10.246094 -13.332031 10.113281 -13.320312 10.035156 -13.292969 C 10.140625 -13.328125 10.296875 -13.394531 10.5 -13.496094 C 11.25 -13.871094 12.070312 -14.34375 12.960938 -14.921875 C 13.855469 -15.5 14.691406 -16.101562 15.464844 -16.726562 C 16.292969 -17.394531 16.96875 -17.976562 17.492188 -18.464844 L 28.894531 -29.050781 L 25.667969 -13.832031 C 25.285156 -12.035156 24.617188 -10.101562 23.65625 -8.027344 C 22.707031 -5.972656 21.527344 -4.015625 20.125 -2.148438 C 18.589844 -0.113281 16.816406 1.570312 14.804688 2.902344 C 12.4375 4.46875 9.871094 5.253906 7.101562 5.253906 C 4.480469 5.253906 2.15625 4.488281 0.125 2.957031 C -1.695312 1.582031 -3.082031 -0.160156 -4.035156 -2.273438 C -4.933594 -4.261719 -5.382812 -6.328125 -5.382812 -8.46875 Z M 4.472656 -8.46875 C 4.472656 -7.742188 4.628906 -7.027344 4.945312 -6.328125 C 5.210938 -5.746094 5.582031 -5.273438 6.0625 -4.910156 C 6.335938 -4.703125 6.679688 -4.601562 7.101562 -4.601562 C 7.894531 -4.601562 8.648438 -4.839844 9.363281 -5.3125 C 10.4375 -6.023438 11.398438 -6.945312 12.253906 -8.078125 C 13.238281 -9.382812 14.058594 -10.746094 14.714844 -12.164062 C 15.363281 -13.566406 15.800781 -14.804688 16.027344 -15.875 L 20.847656 -14.851562 L 24.199219 -11.242188 C 23.507812 -10.601562 22.664062 -9.878906 21.667969 -9.070312 C 20.617188 -8.21875 19.5 -7.410156 18.308594 -6.640625 C 17.113281 -5.871094 15.980469 -5.21875 14.90625 -4.679688 C 13.300781 -3.878906 11.808594 -3.476562 10.421875 -3.476562 C 9.640625 -3.476562 8.898438 -3.605469 8.199219 -3.863281 C 7.292969 -4.199219 6.519531 -4.722656 5.882812 -5.433594 C 4.84375 -6.585938 4.324219 -8.011719 4.324219 -9.707031 C 4.324219 -11.171875 4.746094 -12.953125 5.597656 -15.042969 C 6.261719 -16.683594 7.09375 -18.46875 8.09375 -20.398438 L 10.859375 -25.761719 C 11.726562 -27.453125 12.441406 -28.949219 13.011719 -30.246094 C 13.238281 -30.765625 13.398438 -31.183594 13.496094 -31.5 C 13.519531 -31.578125 13.53125 -31.628906 13.539062 -31.65625 C 13.519531 -31.554688 13.507812 -31.425781 13.507812 -31.269531 C 13.507812 -30.964844 13.621094 -30.644531 13.847656 -30.308594 C 14.046875 -30.015625 14.246094 -29.820312 14.453125 -29.726562 C 13.765625 -30.035156 12.746094 -30.1875 11.398438 -30.1875 C 11.332031 -30.1875 11.253906 -30.183594 11.164062 -30.171875 C 10.773438 -30.136719 10.398438 -30.121094 10.03125 -30.121094 L 10.03125 -35.046875 L 14.625 -33.261719 C 13.675781 -30.828125 12.597656 -28.285156 11.382812 -25.632812 L 7.929688 -18.101562 C 6.855469 -15.769531 5.972656 -13.65625 5.277344 -11.761719 C 4.742188 -10.289062 4.472656 -9.191406 4.472656 -8.46875 Z M 21.164062 -34.464844 C 19.605469 -34.132812 18.175781 -33.964844 16.871094 -33.964844 C 14.066406 -33.964844 11.863281 -34.742188 10.257812 -36.292969 C 9.4375 -37.085938 8.8125 -38 8.390625 -39.03125 C 7.980469 -40.027344 7.777344 -41.085938 7.777344 -42.214844 C 7.777344 -43.949219 8.214844 -45.75 9.09375 -47.609375 C 9.824219 -49.152344 10.742188 -50.617188 11.851562 -52 L 13.332031 -53.851562 L 15.699219 -53.851562 C 19.046875 -53.851562 21.632812 -53.300781 23.460938 -52.195312 C 24.734375 -51.425781 25.710938 -50.421875 26.398438 -49.179688 C 27.066406 -47.964844 27.402344 -46.621094 27.402344 -45.144531 C 27.402344 -42.585938 26.34375 -39.722656 24.230469 -36.550781 L 23.121094 -34.882812 Z M 19.097656 -44.101562 L 20.128906 -39.28125 L 16.03125 -42.015625 C 16.621094 -42.902344 17.050781 -43.675781 17.3125 -44.335938 C 17.46875 -44.726562 17.546875 -44.996094 17.546875 -45.144531 C 17.546875 -44.929688 17.621094 -44.6875 17.769531 -44.417969 C 17.933594 -44.121094 18.132812 -43.902344 18.363281 -43.761719 C 18.398438 -43.742188 18.429688 -43.722656 18.453125 -43.710938 C 18.449219 -43.714844 18.4375 -43.71875 18.414062 -43.726562 C 18.296875 -43.765625 18.140625 -43.804688 17.949219 -43.839844 C 17.371094 -43.945312 16.621094 -43.996094 15.699219 -43.996094 L 15.699219 -48.925781 L 19.546875 -45.847656 C 18.917969 -45.0625 18.40625 -44.246094 18.003906 -43.398438 C 17.753906 -42.871094 17.628906 -42.476562 17.628906 -42.214844 C 17.628906 -42.386719 17.589844 -42.570312 17.503906 -42.777344 C 17.40625 -43.015625 17.273438 -43.214844 17.105469 -43.378906 C 16.851562 -43.625 16.605469 -43.78125 16.363281 -43.851562 C 16.441406 -43.828125 16.609375 -43.820312 16.871094 -43.820312 C 17.480469 -43.820312 18.222656 -43.914062 19.097656 -44.101562 Z M 19.097656 -44.101562 "/>
      </g>
    </g>
  </g>
</svg>
