<svg xmlns="http://www.w3.org/2000/svg" xmlns:xlink="http://www.w3.org/1999/xlink" width="500" zoomAndPan="magnify" viewBox="0 0 375 374.999991" height="500" preserveAspectRatio="xMidYMid meet" version="1.2"><defs><clipPath id="5cf7d35f8e"><rect x="0" width="308" y="0" height="61"/></clipPath></defs><g id="85cad3193a"><g transform="matrix(1,0,0,1,35,108)"><g clip-path="url(#5cf7d35f8e)"><g style="fill:#ffffff;fill-opacity:1;"><g transform="translate(4.595912, 49.547491)"><path style="stroke:none" d=""/></g></g><g style="fill:#ffffff;fill-opacity:1;"><g transform="translate(17.133749, 49.547491)"><path style="stroke:none" d="M -2.585938 -7.21875 C -2.585938 -9.605469 -2.324219 -12.183594 -1.808594 -14.945312 C -1.320312 -17.566406 -0.707031 -20.238281 0.0273438 -22.960938 C 0.738281 -25.609375 1.449219 -28.167969 2.164062 -30.632812 C 2.847656 -33.007812 3.417969 -35.164062 3.871094 -37.105469 C 4.269531 -38.804688 4.46875 -40.148438 4.46875 -41.132812 C 4.46875 -41.199219 4.4375 -41.335938 4.375 -41.546875 C 4.207031 -42.105469 4.035156 -42.640625 3.867188 -43.148438 L 2.261719 -47.964844 L 7.308594 -48.523438 C 7.707031 -48.570312 8.109375 -48.601562 8.507812 -48.625 C 8.910156 -48.644531 9.3125 -48.65625 9.714844 -48.65625 C 11.820312 -48.65625 13.808594 -48.292969 15.679688 -47.5625 C 17.820312 -46.730469 19.5625 -45.390625 20.902344 -43.546875 C 22.292969 -41.636719 22.988281 -39.238281 22.988281 -36.359375 C 22.988281 -34.820312 22.710938 -33.070312 22.15625 -31.113281 C 21.6875 -29.46875 21.121094 -27.628906 20.453125 -25.585938 C 19.824219 -23.664062 19.203125 -21.566406 18.589844 -19.285156 C 18.003906 -17.121094 17.5625 -14.796875 17.261719 -12.3125 L 13.1875 -12.808594 L 13.1875 -16.910156 L 13.402344 -16.910156 C 12.632812 -16.910156 11.953125 -16.714844 11.363281 -16.324219 C 11.300781 -16.28125 11.246094 -16.242188 11.203125 -16.207031 L 11.210938 -16.214844 C 11.382812 -16.375 11.644531 -16.65625 12 -17.058594 C 12.859375 -18.039062 13.945312 -19.359375 15.257812 -21.019531 C 16.585938 -22.707031 18.019531 -24.582031 19.550781 -26.648438 C 21.097656 -28.734375 22.636719 -30.832031 24.167969 -32.9375 C 25.675781 -35.015625 27.042969 -36.960938 28.265625 -38.765625 C 29.472656 -40.550781 30.4375 -42.042969 31.15625 -43.246094 C 31.476562 -43.777344 31.707031 -44.1875 31.84375 -44.46875 C 31.863281 -44.511719 31.878906 -44.546875 31.890625 -44.570312 L 31.894531 -44.574219 C 31.890625 -44.566406 31.882812 -44.550781 31.878906 -44.535156 C 31.769531 -44.222656 31.710938 -43.867188 31.710938 -43.46875 L 31.710938 -48.722656 L 36.8125 -47.449219 C 39.128906 -46.871094 41.101562 -45.777344 42.738281 -44.167969 C 44.65625 -42.28125 45.617188 -40.003906 45.617188 -37.335938 C 45.617188 -35.472656 45.046875 -33.367188 43.898438 -31.027344 C 42.949219 -29.085938 41.695312 -26.960938 40.144531 -24.652344 C 38.652344 -22.433594 37.011719 -20.152344 35.226562 -17.808594 C 33.480469 -15.515625 31.726562 -13.242188 29.960938 -10.984375 L 25.027344 -4.644531 C 23.558594 -2.742188 22.347656 -1.066406 21.390625 0.386719 C 20.964844 1.027344 20.632812 1.582031 20.394531 2.050781 C 20.230469 2.375 20.132812 2.601562 20.097656 2.730469 L 19.273438 6.035156 L 15.875 5.832031 C 14.417969 5.746094 12.75 5.488281 10.863281 5.058594 C 8.917969 4.613281 7.035156 3.96875 5.214844 3.125 C 3.175781 2.175781 1.460938 0.957031 0.0664062 -0.535156 C -1.699219 -2.425781 -2.585938 -4.65625 -2.585938 -7.21875 Z M 5.625 -7.21875 C 5.625 -6.8125 5.769531 -6.453125 6.066406 -6.140625 C 6.734375 -5.425781 7.601562 -4.816406 8.675781 -4.316406 C 9.96875 -3.714844 11.308594 -3.257812 12.6875 -2.941406 C 14.132812 -2.613281 15.355469 -2.417969 16.359375 -2.359375 L 16.117188 1.738281 L 12.136719 0.742188 C 12.464844 -0.578125 13.265625 -2.203125 14.535156 -4.128906 C 15.605469 -5.753906 16.941406 -7.605469 18.550781 -9.683594 L 23.496094 -16.042969 C 25.238281 -18.269531 26.972656 -20.519531 28.699219 -22.785156 C 30.386719 -24.996094 31.929688 -27.148438 33.332031 -29.234375 C 34.675781 -31.230469 35.742188 -33.03125 36.527344 -34.636719 C 37.117188 -35.839844 37.410156 -36.738281 37.410156 -37.335938 C 37.410156 -37.539062 37.382812 -37.710938 37.320312 -37.851562 C 37.257812 -38 37.144531 -38.15625 36.980469 -38.316406 C 36.410156 -38.878906 35.691406 -39.269531 34.820312 -39.488281 L 35.816406 -43.46875 L 39.921875 -43.46875 C 39.921875 -42.691406 39.6875 -41.824219 39.21875 -40.867188 C 38.976562 -40.371094 38.636719 -39.757812 38.195312 -39.023438 C 37.398438 -37.691406 36.355469 -36.074219 35.0625 -34.167969 C 33.789062 -32.285156 32.371094 -30.265625 30.808594 -28.113281 C 29.261719 -25.984375 27.707031 -23.867188 26.144531 -21.757812 C 24.5625 -19.628906 23.082031 -17.6875 21.699219 -15.933594 C 20.296875 -14.160156 19.121094 -12.730469 18.171875 -11.648438 C 17.621094 -11.019531 17.152344 -10.53125 16.765625 -10.171875 C 16.464844 -9.898438 16.175781 -9.667969 15.898438 -9.484375 C 15.113281 -8.964844 14.28125 -8.703125 13.402344 -8.703125 L 8.554688 -8.703125 L 9.113281 -13.300781 C 9.460938 -16.171875 9.976562 -18.878906 10.664062 -21.417969 C 11.3125 -23.839844 11.976562 -26.078125 12.652344 -28.140625 C 13.285156 -30.078125 13.820312 -31.816406 14.257812 -33.355469 C 14.605469 -34.582031 14.78125 -35.582031 14.78125 -36.359375 C 14.78125 -37.460938 14.609375 -38.246094 14.261719 -38.722656 C 13.867188 -39.265625 13.347656 -39.664062 12.699219 -39.914062 C 11.789062 -40.273438 10.792969 -40.449219 9.714844 -40.449219 C 9.464844 -40.449219 9.214844 -40.441406 8.964844 -40.429688 C 8.714844 -40.414062 8.464844 -40.394531 8.214844 -40.367188 L 7.761719 -44.445312 L 11.652344 -45.742188 C 11.847656 -45.164062 12.039062 -44.558594 12.230469 -43.925781 C 12.527344 -42.941406 12.679688 -42.011719 12.679688 -41.132812 C 12.679688 -39.515625 12.40625 -37.550781 11.863281 -35.234375 C 11.378906 -33.15625 10.773438 -30.863281 10.046875 -28.355469 C 9.347656 -25.9375 8.652344 -23.429688 7.953125 -20.832031 C 7.273438 -18.3125 6.710938 -15.847656 6.257812 -13.4375 C 5.835938 -11.171875 5.625 -9.097656 5.625 -7.21875 Z M 5.625 -7.21875 "/></g></g><g style="fill:#ffffff;fill-opacity:1;"><g transform="translate(48.226891, 49.547491)"><path style="stroke:none" d="M 15.050781 -19.863281 C 15.050781 -19.941406 15.050781 -20 15.042969 -20.042969 C 15.046875 -20.027344 15.054688 -19.996094 15.070312 -19.953125 C 15.15625 -19.726562 15.304688 -19.523438 15.515625 -19.347656 C 15.566406 -19.308594 15.625 -19.273438 15.695312 -19.25 C 15.722656 -19.238281 15.746094 -19.234375 15.765625 -19.230469 C 15.765625 -19.230469 15.753906 -19.230469 15.738281 -19.230469 C 15.453125 -19.230469 15.105469 -19.152344 14.699219 -18.992188 C 14.21875 -18.808594 13.75 -18.527344 13.289062 -18.152344 L 10.691406 -21.328125 L 10.691406 -25.429688 L 11.015625 -25.429688 C 12.53125 -25.429688 14.003906 -25.117188 15.4375 -24.488281 C 16.835938 -23.871094 18.160156 -22.914062 19.402344 -21.617188 L 24.140625 -16.683594 L 17.558594 -14.828125 C 16.820312 -14.621094 16.152344 -14.21875 15.550781 -13.625 C 14.777344 -12.867188 14.183594 -12.070312 13.773438 -11.238281 C 13.441406 -10.5625 13.273438 -10.054688 13.273438 -9.714844 C 13.273438 -9.988281 13.160156 -10.285156 12.925781 -10.609375 C 12.632812 -11.007812 12.265625 -11.304688 11.8125 -11.503906 C 11.515625 -11.636719 11.230469 -11.703125 10.960938 -11.703125 C 10.796875 -11.703125 10.667969 -11.679688 10.578125 -11.636719 C 10.660156 -11.675781 10.789062 -11.769531 10.957031 -11.917969 C 11.617188 -12.503906 12.261719 -13.28125 12.890625 -14.25 C 13.5625 -15.289062 14.109375 -16.367188 14.527344 -17.484375 C 14.878906 -18.410156 15.050781 -19.203125 15.050781 -19.863281 Z M 23.261719 -19.863281 C 23.261719 -18.207031 22.910156 -16.449219 22.210938 -14.589844 C 21.582031 -12.921875 20.769531 -11.320312 19.777344 -9.789062 C 18.742188 -8.191406 17.617188 -6.851562 16.394531 -5.773438 C 14.675781 -4.253906 12.867188 -3.492188 10.960938 -3.492188 C 10.078125 -3.492188 9.261719 -3.660156 8.507812 -3.988281 C 7.605469 -4.386719 6.867188 -4.984375 6.285156 -5.78125 C 5.472656 -6.898438 5.066406 -8.210938 5.066406 -9.714844 C 5.066406 -11.328125 5.515625 -13.046875 6.414062 -14.867188 C 7.234375 -16.53125 8.359375 -18.066406 9.792969 -19.476562 C 11.398438 -21.054688 13.242188 -22.136719 15.328125 -22.726562 L 16.441406 -18.777344 L 13.484375 -15.933594 C 12.988281 -16.449219 12.539062 -16.792969 12.132812 -16.972656 C 11.753906 -17.140625 11.382812 -17.222656 11.015625 -17.222656 L -0.804688 -17.222656 L 8.09375 -24.503906 C 9.226562 -25.429688 10.4375 -26.144531 11.730469 -26.644531 C 13.09375 -27.175781 14.429688 -27.4375 15.738281 -27.4375 C 17.671875 -27.4375 19.355469 -26.839844 20.789062 -25.640625 C 21.667969 -24.902344 22.320312 -23.980469 22.738281 -22.878906 C 23.085938 -21.96875 23.261719 -20.964844 23.261719 -19.863281 Z M -3.074219 -7.707031 C -3.074219 -9.640625 -2.824219 -11.496094 -2.320312 -13.269531 C -1.828125 -15.027344 -1.144531 -16.636719 -0.273438 -18.105469 L 3.257812 -16.007812 L -0.847656 -16.007812 L -0.847656 -16.496094 C -0.847656 -19.230469 -0.164062 -21.765625 1.207031 -24.105469 C 2.460938 -26.25 4.105469 -28.128906 6.140625 -29.730469 C 8.105469 -31.28125 10.226562 -32.480469 12.503906 -33.335938 C 14.851562 -34.214844 17.160156 -34.65625 19.429688 -34.65625 C 21.550781 -34.65625 23.511719 -34.238281 25.304688 -33.40625 C 27.332031 -32.46875 28.929688 -30.996094 30.105469 -28.992188 C 31.222656 -27.085938 31.78125 -24.746094 31.78125 -21.976562 C 31.78125 -19.742188 31.425781 -17.414062 30.71875 -14.992188 C 30.03125 -12.636719 29.054688 -10.355469 27.789062 -8.15625 C 26.507812 -5.929688 24.984375 -3.925781 23.214844 -2.136719 C 21.375 -0.273438 19.316406 1.222656 17.042969 2.347656 C 14.605469 3.554688 12 4.160156 9.226562 4.160156 C 7.191406 4.160156 5.238281 3.648438 3.359375 2.628906 C 1.507812 1.625 -0.00390625 0.257812 -1.171875 -1.472656 C -2.441406 -3.339844 -3.074219 -5.417969 -3.074219 -7.707031 Z M 5.136719 -7.707031 C 5.136719 -7.097656 5.296875 -6.554688 5.625 -6.070312 C 6.046875 -5.449219 6.597656 -4.953125 7.277344 -4.582031 C 7.933594 -4.226562 8.582031 -4.050781 9.226562 -4.050781 C 10.71875 -4.050781 12.113281 -4.367188 13.402344 -5.007812 C 14.855469 -5.726562 16.179688 -6.691406 17.375 -7.90625 C 18.648438 -9.191406 19.746094 -10.636719 20.671875 -12.25 C 21.613281 -13.882812 22.335938 -15.566406 22.839844 -17.296875 C 23.328125 -18.964844 23.574219 -20.523438 23.574219 -21.976562 C 23.574219 -23.261719 23.390625 -24.214844 23.023438 -24.84375 C 22.714844 -25.371094 22.324219 -25.742188 21.851562 -25.960938 C 21.152344 -26.285156 20.34375 -26.449219 19.429688 -26.449219 C 18.152344 -26.449219 16.804688 -26.183594 15.386719 -25.652344 C 13.90625 -25.097656 12.519531 -24.308594 11.226562 -23.289062 C 10.003906 -22.324219 9.023438 -21.214844 8.289062 -19.960938 C 7.671875 -18.898438 7.359375 -17.746094 7.359375 -16.496094 L 7.359375 -14.882812 L 6.785156 -13.914062 C 6.28125 -13.066406 5.878906 -12.105469 5.578125 -11.042969 C 5.28125 -9.996094 5.136719 -8.882812 5.136719 -7.707031 Z M 5.136719 -7.707031 "/></g></g><g style="fill:#ffffff;fill-opacity:1;"><g transform="translate(74.870413, 49.547491)"><path style="stroke:none" d="M 23.445312 -12.214844 C 22.300781 -8.609375 20.882812 -5.644531 19.195312 -3.316406 C 17.425781 -0.875 15.515625 0.941406 13.457031 2.136719 C 11.265625 3.414062 9.09375 4.050781 6.945312 4.050781 C 5.460938 4.050781 4.066406 3.761719 2.761719 3.179688 C 1.480469 2.609375 0.328125 1.777344 -0.691406 0.683594 C -2.714844 -1.476562 -3.722656 -4.257812 -3.722656 -7.652344 C -3.722656 -9.429688 -3.359375 -11.53125 -2.628906 -13.960938 C -1.972656 -16.144531 -1.117188 -18.488281 -0.0664062 -20.988281 C 0.9375 -23.386719 1.992188 -25.816406 3.085938 -28.285156 L 6.210938 -35.289062 C 7.160156 -37.417969 7.925781 -39.296875 8.503906 -40.929688 C 8.960938 -42.222656 9.191406 -43.105469 9.191406 -43.578125 L 9.191406 -43.585938 C 9.195312 -43.550781 9.199219 -43.507812 9.207031 -43.457031 C 9.25 -43.144531 9.355469 -42.824219 9.515625 -42.5 L 7.113281 -47.308594 L 12.382812 -48.359375 C 12.695312 -48.421875 13.007812 -48.46875 13.320312 -48.5 C 13.636719 -48.535156 13.953125 -48.550781 14.273438 -48.550781 C 15.707031 -48.550781 17.1875 -48.265625 18.71875 -47.695312 C 20.308594 -47.101562 21.6875 -46.246094 22.855469 -45.136719 C 23.625 -44.402344 24.214844 -43.578125 24.625 -42.660156 C 25.054688 -41.703125 25.269531 -40.6875 25.269531 -39.617188 C 25.269531 -38.210938 24.761719 -36.496094 23.75 -34.46875 C 22.996094 -32.964844 22.097656 -31.28125 21.054688 -29.414062 C 20.105469 -27.71875 19.21875 -25.949219 18.402344 -24.109375 C 17.992188 -23.1875 17.539062 -22.089844 17.035156 -20.804688 C 16.527344 -19.515625 16.03125 -18.167969 15.542969 -16.769531 C 15.082031 -15.457031 14.714844 -14.21875 14.441406 -13.058594 C 14.207031 -12.066406 14.089844 -11.292969 14.089844 -10.746094 C 14.089844 -10.707031 14.089844 -10.675781 14.089844 -10.65625 C 14.089844 -10.671875 14.085938 -10.695312 14.082031 -10.726562 C 14.035156 -10.953125 13.941406 -11.191406 13.792969 -11.441406 C 13.511719 -11.921875 13.121094 -12.300781 12.617188 -12.585938 C 12.128906 -12.863281 11.609375 -13.003906 11.070312 -13.003906 C 11.441406 -13.003906 11.878906 -13.121094 12.378906 -13.351562 C 13.167969 -13.722656 13.917969 -14.171875 14.632812 -14.707031 C 15.445312 -15.316406 16.140625 -15.894531 16.714844 -16.4375 Z M 15.625 -14.703125 L 19.535156 -13.457031 L 22.359375 -10.480469 C 21.558594 -9.71875 20.625 -8.941406 19.558594 -8.140625 C 18.386719 -7.261719 17.148438 -6.519531 15.839844 -5.910156 C 14.242188 -5.167969 12.652344 -4.796875 11.070312 -4.796875 C 10.167969 -4.796875 9.335938 -5.011719 8.574219 -5.445312 C 7.800781 -5.882812 7.179688 -6.496094 6.71875 -7.28125 C 6.160156 -8.230469 5.882812 -9.386719 5.882812 -10.746094 C 5.882812 -11.933594 6.070312 -13.332031 6.453125 -14.945312 C 6.792969 -16.386719 7.238281 -17.898438 7.792969 -19.480469 C 8.316406 -20.976562 8.851562 -22.414062 9.394531 -23.800781 C 9.941406 -25.195312 10.441406 -26.410156 10.902344 -27.445312 C 11.820312 -29.511719 12.820312 -31.507812 13.894531 -33.425781 C 14.875 -35.179688 15.714844 -36.75 16.410156 -38.140625 C 16.679688 -38.683594 16.875 -39.136719 16.992188 -39.496094 C 17.03125 -39.609375 17.054688 -39.699219 17.066406 -39.761719 C 17.0625 -39.738281 17.058594 -39.6875 17.058594 -39.617188 C 17.058594 -39.519531 17.085938 -39.417969 17.132812 -39.3125 C 17.152344 -39.265625 17.175781 -39.226562 17.199219 -39.191406 L 17.195312 -39.195312 C 16.839844 -39.53125 16.390625 -39.800781 15.851562 -40.003906 C 15.246094 -40.226562 14.71875 -40.339844 14.273438 -40.339844 C 14.226562 -40.339844 14.183594 -40.339844 14.136719 -40.335938 C 14.089844 -40.328125 14.042969 -40.320312 13.992188 -40.3125 L 13.1875 -44.335938 L 16.859375 -46.171875 C 17.21875 -45.449219 17.398438 -44.585938 17.398438 -43.578125 C 17.398438 -42.164062 17.011719 -40.371094 16.242188 -38.191406 C 15.589844 -36.351562 14.746094 -34.269531 13.707031 -31.949219 L 10.589844 -24.953125 C 9.515625 -22.535156 8.484375 -20.15625 7.5 -17.8125 C 6.5625 -15.574219 5.804688 -13.503906 5.230469 -11.597656 C 4.734375 -9.9375 4.484375 -8.625 4.484375 -7.652344 C 4.484375 -6.414062 4.757812 -5.503906 5.304688 -4.917969 C 5.566406 -4.636719 5.832031 -4.4375 6.097656 -4.320312 C 6.339844 -4.210938 6.621094 -4.160156 6.945312 -4.160156 C 7.621094 -4.160156 8.414062 -4.425781 9.332031 -4.957031 C 10.386719 -5.574219 11.460938 -6.628906 12.550781 -8.132812 C 13.722656 -9.75 14.746094 -11.9375 15.625 -14.703125 Z M 15.625 -14.703125 "/></g></g><g style="fill:#ffffff;fill-opacity:1;"><g transform="translate(92.66895, 49.547491)"><path style="stroke:none" d="M 31.652344 -46.890625 C 33.300781 -45.570312 34.523438 -44.246094 35.320312 -42.921875 C 36.253906 -41.367188 36.71875 -39.8125 36.71875 -38.257812 C 36.71875 -37.003906 36.4375 -35.828125 35.878906 -34.730469 C 35.359375 -33.707031 34.617188 -32.800781 33.65625 -32.003906 C 32.183594 -30.785156 30.40625 -29.859375 28.320312 -29.230469 C 26.378906 -28.640625 24.445312 -28.347656 22.519531 -28.347656 C 20.261719 -28.347656 18.285156 -29.125 16.59375 -30.679688 C 15.191406 -31.96875 14.199219 -33.4375 13.609375 -35.085938 L 12.140625 -39.195312 L 16.332031 -40.410156 C 17.632812 -40.785156 18.890625 -41.1875 20.101562 -41.613281 C 21.007812 -41.933594 21.925781 -42.429688 22.851562 -43.101562 C 23.777344 -43.769531 24.769531 -44.796875 25.828125 -46.179688 L 28.378906 -49.507812 Z M 26.523438 -40.480469 L 29.085938 -43.683594 L 32.34375 -41.191406 C 30.800781 -39.171875 29.242188 -37.59375 27.667969 -36.453125 C 26.101562 -35.316406 24.484375 -34.457031 22.824219 -33.871094 C 21.46875 -33.394531 20.066406 -32.945312 18.617188 -32.527344 L 17.472656 -36.46875 L 21.339844 -37.847656 C 21.472656 -37.472656 21.746094 -37.09375 22.152344 -36.71875 C 22.269531 -36.609375 22.394531 -36.554688 22.519531 -36.554688 C 23.636719 -36.554688 24.777344 -36.734375 25.945312 -37.085938 C 26.972656 -37.398438 27.800781 -37.808594 28.425781 -38.328125 C 28.488281 -38.378906 28.535156 -38.425781 28.570312 -38.464844 C 28.574219 -38.472656 28.578125 -38.476562 28.578125 -38.476562 C 28.574219 -38.46875 28.570312 -38.460938 28.5625 -38.449219 C 28.527344 -38.382812 28.511719 -38.316406 28.511719 -38.257812 C 28.511719 -38.234375 28.511719 -38.214844 28.515625 -38.199219 C 28.511719 -38.207031 28.507812 -38.222656 28.5 -38.246094 C 28.460938 -38.367188 28.390625 -38.519531 28.28125 -38.699219 C 27.992188 -39.179688 27.40625 -39.773438 26.523438 -40.480469 Z M 19.410156 -24.289062 C 20.402344 -24.578125 21.332031 -24.726562 22.195312 -24.726562 C 24.582031 -24.726562 26.621094 -23.929688 28.316406 -22.335938 C 29.144531 -21.558594 29.78125 -20.699219 30.230469 -19.761719 C 30.71875 -18.726562 30.964844 -17.640625 30.964844 -16.496094 C 30.964844 -15.910156 30.847656 -15.285156 30.605469 -14.621094 C 30.480469 -14.273438 30.308594 -13.875 30.09375 -13.429688 C 29.777344 -12.78125 29.410156 -12.035156 28.988281 -11.1875 C 28.652344 -10.523438 28.363281 -9.828125 28.117188 -9.097656 C 27.953125 -8.621094 27.875 -8.210938 27.875 -7.867188 C 27.875 -8.265625 27.800781 -8.65625 27.660156 -9.042969 C 27.453125 -9.605469 27.125 -10.09375 26.679688 -10.5 C 26.273438 -10.867188 25.8125 -11.132812 25.296875 -11.289062 C 24.980469 -11.382812 24.671875 -11.429688 24.367188 -11.429688 C 24.113281 -11.429688 23.90625 -11.402344 23.746094 -11.347656 C 23.796875 -11.363281 23.882812 -11.410156 24.015625 -11.480469 C 24.460938 -11.71875 24.917969 -12.03125 25.390625 -12.414062 C 25.785156 -12.734375 26.078125 -13.023438 26.265625 -13.28125 L 27.496094 -14.957031 L 34.042969 -14.957031 L 33.78125 -10.605469 C 33.6875 -9.039062 33.359375 -7.449219 32.808594 -5.832031 C 32.242188 -4.1875 31.453125 -2.65625 30.441406 -1.246094 C 29.351562 0.277344 28.042969 1.515625 26.519531 2.472656 C 24.785156 3.558594 22.835938 4.105469 20.675781 4.105469 C 19.382812 4.105469 18.1875 3.847656 17.09375 3.339844 C 15.960938 2.808594 14.992188 2.035156 14.191406 1.015625 C 13.023438 -0.472656 12.226562 -2.125 11.796875 -3.945312 L 15.792969 -4.882812 L 18.925781 -2.234375 C 17.207031 -0.199219 15.40625 1.3125 13.523438 2.304688 C 11.515625 3.359375 9.539062 3.886719 7.597656 3.886719 C 6.039062 3.886719 4.589844 3.566406 3.242188 2.929688 C 1.921875 2.300781 0.75 1.394531 -0.269531 0.199219 C -2.210938 -2.070312 -3.179688 -4.996094 -3.179688 -8.574219 C -3.179688 -11.601562 -2.597656 -14.460938 -1.433594 -17.152344 C -0.308594 -19.746094 1.203125 -22.078125 3.105469 -24.15625 C 4.929688 -26.144531 6.953125 -27.867188 9.175781 -29.320312 C 11.410156 -30.78125 13.695312 -31.902344 16.039062 -32.683594 C 18.46875 -33.492188 20.792969 -33.898438 23.007812 -33.898438 C 25.570312 -33.898438 27.707031 -33.296875 29.425781 -32.101562 C 30.480469 -31.367188 31.292969 -30.460938 31.855469 -29.382812 C 32.421875 -28.304688 32.703125 -27.117188 32.703125 -25.832031 C 32.703125 -23.648438 31.867188 -21.449219 30.191406 -19.230469 L 28.484375 -16.976562 L 25.773438 -17.765625 C 25.023438 -17.984375 24.320312 -18.089844 23.660156 -18.089844 C 22.425781 -18.089844 21.296875 -17.816406 20.273438 -17.273438 C 19.050781 -16.621094 17.996094 -15.820312 17.117188 -14.871094 C 16.171875 -13.855469 15.453125 -12.871094 14.953125 -11.914062 C 14.730469 -11.484375 14.570312 -11.117188 14.476562 -10.816406 C 14.445312 -10.722656 14.425781 -10.648438 14.414062 -10.585938 C 14.414062 -10.578125 14.414062 -10.574219 14.414062 -10.574219 C 14.414062 -10.589844 14.414062 -10.613281 14.414062 -10.636719 C 14.414062 -10.785156 14.386719 -10.957031 14.335938 -11.148438 C 14.222656 -11.550781 14.023438 -11.917969 13.738281 -12.257812 C 13.390625 -12.675781 12.964844 -12.980469 12.464844 -13.179688 C 12.121094 -13.316406 11.785156 -13.382812 11.449219 -13.382812 C 11.242188 -13.382812 11.085938 -13.359375 10.980469 -13.316406 C 11.085938 -13.359375 11.242188 -13.460938 11.445312 -13.617188 C 12.140625 -14.15625 12.871094 -14.882812 13.636719 -15.804688 C 14.421875 -16.757812 15.097656 -17.75 15.65625 -18.78125 C 16.125 -19.644531 16.414062 -20.390625 16.519531 -21.023438 L 16.941406 -23.5625 Z M 21.726562 -16.414062 L 20.566406 -20.351562 L 24.617188 -19.675781 C 24.359375 -18.136719 23.777344 -16.535156 22.871094 -14.863281 C 22.058594 -13.363281 21.085938 -11.933594 19.957031 -10.570312 C 18.800781 -9.175781 17.632812 -8.023438 16.449219 -7.113281 C 14.769531 -5.820312 13.105469 -5.175781 11.449219 -5.175781 C 10.738281 -5.175781 10.066406 -5.300781 9.4375 -5.550781 C 8.652344 -5.859375 7.992188 -6.335938 7.453125 -6.980469 C 6.621094 -7.96875 6.207031 -9.1875 6.207031 -10.636719 C 6.207031 -12.136719 6.695312 -13.828125 7.675781 -15.707031 C 8.515625 -17.320312 9.65625 -18.902344 11.105469 -20.457031 C 12.609375 -22.078125 14.378906 -23.429688 16.410156 -24.515625 C 18.644531 -25.703125 21.058594 -26.300781 23.660156 -26.300781 C 25.097656 -26.300781 26.566406 -26.082031 28.0625 -25.648438 L 26.917969 -21.707031 L 23.644531 -24.183594 C 23.988281 -24.636719 24.234375 -25.042969 24.378906 -25.402344 C 24.457031 -25.589844 24.496094 -25.734375 24.496094 -25.832031 C 24.496094 -25.773438 24.523438 -25.6875 24.582031 -25.578125 C 24.640625 -25.46875 24.691406 -25.398438 24.734375 -25.367188 C 24.425781 -25.582031 23.851562 -25.6875 23.007812 -25.6875 C 21.679688 -25.6875 20.222656 -25.425781 18.636719 -24.894531 C 16.964844 -24.339844 15.308594 -23.523438 13.671875 -22.453125 C 12.023438 -21.371094 10.515625 -20.09375 9.15625 -18.609375 C 7.875 -17.210938 6.855469 -15.636719 6.097656 -13.890625 C 5.382812 -12.238281 5.027344 -10.46875 5.027344 -8.574219 C 5.027344 -7.015625 5.339844 -5.871094 5.96875 -5.136719 C 6.230469 -4.828125 6.492188 -4.613281 6.757812 -4.488281 C 6.992188 -4.375 7.273438 -4.320312 7.597656 -4.320312 C 8.1875 -4.320312 8.890625 -4.535156 9.703125 -4.960938 C 10.640625 -5.457031 11.625 -6.3125 12.65625 -7.53125 L 17.917969 -13.761719 L 19.785156 -5.824219 C 19.9375 -5.183594 20.222656 -4.59375 20.648438 -4.054688 L 20.648438 -4.046875 C 20.625 -4.066406 20.597656 -4.085938 20.566406 -4.097656 C 20.546875 -4.109375 20.535156 -4.113281 20.527344 -4.113281 C 20.5625 -4.109375 20.609375 -4.105469 20.675781 -4.105469 C 21.265625 -4.105469 21.757812 -4.230469 22.160156 -4.480469 C 22.769531 -4.863281 23.308594 -5.378906 23.769531 -6.027344 C 24.316406 -6.785156 24.738281 -7.609375 25.042969 -8.496094 C 25.355469 -9.410156 25.539062 -10.277344 25.585938 -11.101562 L 29.683594 -10.851562 L 29.683594 -6.75 L 29.574219 -6.75 L 29.574219 -10.851562 L 32.886719 -8.425781 C 32.277344 -7.597656 31.503906 -6.804688 30.558594 -6.039062 C 29.691406 -5.335938 28.8125 -4.742188 27.917969 -4.257812 C 26.640625 -3.566406 25.457031 -3.222656 24.367188 -3.222656 C 23.109375 -3.222656 22.039062 -3.625 21.15625 -4.425781 C 20.609375 -4.921875 20.210938 -5.519531 19.953125 -6.21875 C 19.761719 -6.742188 19.664062 -7.292969 19.664062 -7.867188 C 19.664062 -9.117188 19.890625 -10.40625 20.34375 -11.742188 C 20.710938 -12.820312 21.144531 -13.859375 21.644531 -14.859375 C 22.054688 -15.675781 22.410156 -16.394531 22.710938 -17.015625 C 22.800781 -17.203125 22.859375 -17.335938 22.886719 -17.410156 C 22.800781 -17.171875 22.757812 -16.867188 22.757812 -16.496094 C 22.757812 -16.402344 22.777344 -16.316406 22.816406 -16.230469 L 22.820312 -16.21875 C 22.792969 -16.257812 22.75 -16.304688 22.695312 -16.355469 C 22.582031 -16.464844 22.414062 -16.519531 22.195312 -16.519531 C 22.117188 -16.519531 21.960938 -16.484375 21.726562 -16.414062 Z M 21.726562 -16.414062 "/></g></g><g style="fill:#ffffff;fill-opacity:1;"><g transform="translate(122.188452, 49.547491)"><path style="stroke:none" d=""/></g></g><g style="fill:#ffffff;fill-opacity:1;"><g transform="translate(134.723404, 49.547491)"><path style="stroke:none" d="M 29.902344 -31.710938 C 29.835938 -31.710938 29.714844 -31.6875 29.539062 -31.640625 C 29.230469 -31.554688 28.871094 -31.417969 28.453125 -31.226562 C 27.535156 -30.796875 26.597656 -30.1875 25.644531 -29.386719 C 24.695312 -28.589844 23.859375 -27.679688 23.144531 -26.65625 C 22.578125 -25.84375 22.214844 -24.980469 22.066406 -24.070312 L 18.015625 -24.746094 L 17.8125 -28.84375 C 18.726562 -28.890625 19.703125 -29.152344 20.738281 -29.636719 C 21.960938 -30.203125 23.109375 -30.910156 24.171875 -31.757812 C 25.226562 -32.59375 26.058594 -33.410156 26.664062 -34.207031 C 26.878906 -34.488281 27.023438 -34.710938 27.09375 -34.875 C 27.101562 -34.886719 27.101562 -34.890625 27.101562 -34.890625 C 27.097656 -34.875 27.089844 -34.855469 27.085938 -34.832031 C 27.058594 -34.722656 27.046875 -34.597656 27.046875 -34.460938 C 27.046875 -34.277344 27.078125 -34.074219 27.148438 -33.851562 C 27.277344 -33.425781 27.5 -33.042969 27.816406 -32.699219 C 28.164062 -32.320312 28.578125 -32.042969 29.050781 -31.875 C 29.34375 -31.765625 29.628906 -31.710938 29.902344 -31.710938 Z M 29.902344 -39.921875 C 30.589844 -39.921875 31.238281 -39.808594 31.84375 -39.589844 C 32.628906 -39.304688 33.300781 -38.859375 33.859375 -38.257812 C 34.789062 -37.246094 35.253906 -35.980469 35.253906 -34.460938 C 35.253906 -32.777344 34.566406 -31.03125 33.191406 -29.230469 C 32.171875 -27.890625 30.867188 -26.59375 29.28125 -25.332031 C 27.703125 -24.078125 26.007812 -23.03125 24.195312 -22.191406 C 22.191406 -21.261719 20.199219 -20.746094 18.222656 -20.648438 L 13.128906 -20.390625 L 13.96875 -25.421875 C 14.324219 -27.550781 15.140625 -29.527344 16.417969 -31.355469 C 17.546875 -32.972656 18.863281 -34.414062 20.371094 -35.679688 C 21.878906 -36.941406 23.421875 -37.941406 25 -38.671875 C 26.796875 -39.503906 28.429688 -39.921875 29.902344 -39.921875 Z M 17.453125 -14.707031 C 17.453125 -14.742188 17.445312 -14.777344 17.429688 -14.816406 L 17.433594 -14.816406 C 17.453125 -14.785156 17.480469 -14.75 17.519531 -14.707031 C 17.875 -14.320312 18.332031 -14.007812 18.898438 -13.769531 C 19.511719 -13.511719 20.070312 -13.382812 20.566406 -13.382812 C 20.992188 -13.382812 21.335938 -13.472656 21.597656 -13.652344 C 21.496094 -13.582031 21.40625 -13.46875 21.328125 -13.3125 C 21.289062 -13.238281 21.261719 -13.164062 21.246094 -13.09375 C 21.242188 -13.078125 21.238281 -13.0625 21.238281 -13.054688 C 21.238281 -13.058594 21.238281 -13.066406 21.238281 -13.078125 C 21.238281 -12.972656 21.257812 -12.878906 21.300781 -12.796875 C 21.28125 -12.828125 21.222656 -12.894531 21.117188 -12.996094 C 21.125 -12.984375 21.136719 -12.980469 21.144531 -12.972656 C 21.144531 -12.972656 21.140625 -12.976562 21.136719 -12.976562 C 21.089844 -13.003906 21.023438 -13.027344 20.9375 -13.054688 C 20.605469 -13.15625 20.15625 -13.207031 19.589844 -13.207031 C 18.300781 -13.207031 17.1875 -12.738281 16.25 -11.804688 L 13.351562 -14.707031 Z M 9.246094 -14.707031 L 9.246094 -16.40625 L 10.449219 -17.609375 C 12.984375 -20.144531 16.035156 -21.414062 19.589844 -21.414062 C 22.628906 -21.414062 25.015625 -20.601562 26.746094 -18.96875 C 28.546875 -17.273438 29.445312 -15.308594 29.445312 -13.078125 C 29.445312 -11.804688 29.179688 -10.644531 28.640625 -9.585938 C 28.082031 -8.492188 27.269531 -7.582031 26.210938 -6.863281 C 24.554688 -5.738281 22.675781 -5.175781 20.566406 -5.175781 C 18.96875 -5.175781 17.351562 -5.515625 15.722656 -6.199219 C 14.046875 -6.902344 12.625 -7.894531 11.457031 -9.171875 C 9.984375 -10.789062 9.246094 -12.632812 9.246094 -14.707031 Z M -4.484375 -6.621094 C -4.484375 -7.605469 -4.167969 -8.976562 -3.535156 -10.726562 C -3.046875 -12.082031 -2.410156 -13.71875 -1.628906 -15.632812 C -0.863281 -17.515625 -0.0117188 -19.550781 0.917969 -21.738281 C 1.835938 -23.898438 2.753906 -26.085938 3.671875 -28.296875 C 4.574219 -30.476562 5.394531 -32.5625 6.136719 -34.558594 C 6.867188 -36.515625 7.449219 -38.246094 7.894531 -39.746094 C 8.253906 -40.960938 8.433594 -41.820312 8.433594 -42.328125 C 8.433594 -42.582031 8.425781 -42.84375 8.410156 -43.117188 C 8.394531 -43.394531 8.375 -43.683594 8.34375 -43.980469 L 8.324219 -44.1875 L 8.324219 -44.390625 C 8.324219 -45.070312 8.46875 -45.714844 8.753906 -46.320312 C 9.089844 -47.019531 9.574219 -47.59375 10.210938 -48.039062 C 11.007812 -48.59375 11.925781 -48.875 12.96875 -48.875 C 15.003906 -48.875 16.886719 -48.585938 18.609375 -48.011719 C 20.394531 -47.417969 22.207031 -46.359375 24.046875 -44.84375 L 21.4375 -41.675781 L 19.070312 -45.03125 C 19.925781 -45.636719 21.007812 -46.210938 22.3125 -46.761719 C 23.457031 -47.246094 24.660156 -47.6875 25.917969 -48.085938 C 27.214844 -48.496094 28.46875 -48.816406 29.679688 -49.046875 C 30.980469 -49.292969 32.085938 -49.417969 32.996094 -49.417969 C 35.617188 -49.417969 37.914062 -48.808594 39.898438 -47.585938 C 41.851562 -46.378906 43.359375 -44.777344 44.414062 -42.777344 C 45.433594 -40.839844 45.945312 -38.699219 45.945312 -36.359375 C 45.945312 -33.597656 45.289062 -31.019531 43.976562 -28.613281 C 42.765625 -26.394531 41.199219 -24.445312 39.273438 -22.765625 C 37.457031 -21.179688 35.523438 -19.875 33.472656 -18.851562 L 31.636719 -22.519531 L 34.578125 -25.386719 C 36.339844 -23.574219 37.621094 -21.640625 38.421875 -19.582031 C 39.203125 -17.566406 39.59375 -15.5625 39.59375 -13.566406 C 39.59375 -11.199219 39.101562 -8.933594 38.113281 -6.765625 C 37.152344 -4.660156 35.824219 -2.792969 34.125 -1.164062 C 32.441406 0.453125 30.503906 1.722656 28.320312 2.644531 C 26.089844 3.582031 23.726562 4.050781 21.21875 4.050781 C 18.984375 4.050781 16.722656 3.617188 14.429688 2.753906 C 12.132812 1.894531 9.914062 0.519531 7.765625 -1.367188 L 10.472656 -4.449219 L 10.472656 -0.347656 C 11.339844 -0.347656 12.113281 -0.597656 12.785156 -1.105469 C 13.027344 -1.285156 13.226562 -1.476562 13.386719 -1.6875 C 13.429688 -1.742188 13.460938 -1.78125 13.476562 -1.808594 C 13.453125 -1.769531 13.421875 -1.714844 13.382812 -1.636719 C 13.160156 -1.183594 12.953125 -0.65625 12.765625 -0.0546875 C 12.574219 0.546875 12.460938 0.996094 12.421875 1.285156 L 11.917969 4.808594 L 8.355469 4.808594 C 6.519531 4.808594 4.695312 4.46875 2.890625 3.785156 C 0.878906 3.023438 -0.8125 1.824219 -2.175781 0.183594 C -3.714844 -1.660156 -4.484375 -3.929688 -4.484375 -6.621094 Z M 3.722656 -6.621094 C 3.722656 -5.910156 3.859375 -5.394531 4.128906 -5.070312 C 4.574219 -4.535156 5.128906 -4.144531 5.792969 -3.894531 C 6.664062 -3.5625 7.519531 -3.398438 8.355469 -3.398438 L 8.355469 0.707031 L 4.292969 0.125 C 4.398438 -0.597656 4.609375 -1.472656 4.925781 -2.496094 C 5.246094 -3.519531 5.617188 -4.457031 6.042969 -5.308594 C 6.328125 -5.875 6.617188 -6.347656 6.910156 -6.726562 C 7.195312 -7.097656 7.515625 -7.410156 7.863281 -7.671875 C 8.644531 -8.261719 9.515625 -8.554688 10.472656 -8.554688 L 12.019531 -8.554688 L 13.179688 -7.535156 C 14.578125 -6.308594 15.957031 -5.4375 17.320312 -4.925781 C 18.679688 -4.414062 19.980469 -4.160156 21.21875 -4.160156 C 22.621094 -4.160156 23.925781 -4.414062 25.132812 -4.921875 C 26.386719 -5.449219 27.488281 -6.171875 28.445312 -7.085938 C 29.386719 -7.988281 30.121094 -9.015625 30.644531 -10.167969 C 31.140625 -11.253906 31.386719 -12.386719 31.386719 -13.566406 C 31.386719 -14.539062 31.179688 -15.554688 30.769531 -16.613281 C 30.375 -17.628906 29.683594 -18.644531 28.699219 -19.65625 L 24.777344 -23.679688 L 29.800781 -26.191406 C 31.226562 -26.902344 32.585938 -27.824219 33.878906 -28.953125 C 35.066406 -29.984375 36.03125 -31.183594 36.773438 -32.542969 C 37.414062 -33.722656 37.734375 -34.996094 37.734375 -36.359375 C 37.734375 -37.347656 37.542969 -38.210938 37.152344 -38.949219 C 36.792969 -39.628906 36.273438 -40.175781 35.589844 -40.597656 C 34.929688 -41.003906 34.0625 -41.210938 32.996094 -41.210938 C 32.601562 -41.210938 32.003906 -41.132812 31.207031 -40.984375 C 30.320312 -40.8125 29.386719 -40.574219 28.402344 -40.261719 C 27.382812 -39.9375 26.414062 -39.582031 25.496094 -39.199219 C 24.738281 -38.878906 24.175781 -38.585938 23.800781 -38.324219 L 21.242188 -36.515625 L 18.824219 -38.511719 C 17.769531 -39.382812 16.832031 -39.953125 16.011719 -40.226562 C 15.132812 -40.519531 14.117188 -40.667969 12.96875 -40.667969 C 13.652344 -40.667969 14.300781 -40.882812 14.917969 -41.3125 C 15.460938 -41.695312 15.878906 -42.1875 16.167969 -42.792969 C 16.410156 -43.304688 16.53125 -43.835938 16.53125 -44.390625 L 12.425781 -44.390625 L 16.511719 -44.800781 C 16.554688 -44.375 16.585938 -43.957031 16.605469 -43.546875 C 16.628906 -43.132812 16.640625 -42.726562 16.640625 -42.328125 C 16.640625 -41.027344 16.347656 -39.394531 15.765625 -37.421875 C 15.269531 -35.738281 14.625 -33.832031 13.832031 -31.699219 C 13.054688 -29.609375 12.195312 -27.425781 11.253906 -25.15625 C 10.324219 -22.917969 9.398438 -20.710938 8.472656 -18.527344 C 7.554688 -16.375 6.722656 -14.378906 5.972656 -12.53125 C 5.230469 -10.722656 4.636719 -9.191406 4.1875 -7.941406 C 3.992188 -7.40625 3.855469 -6.976562 3.769531 -6.644531 C 3.742188 -6.539062 3.722656 -6.457031 3.710938 -6.402344 C 3.71875 -6.449219 3.722656 -6.519531 3.722656 -6.621094 Z M 3.722656 -6.621094 "/></g></g><g style="fill:#ffffff;fill-opacity:1;"><g transform="translate(171.297182, 49.547491)"><path style="stroke:none" d="M 19.410156 -24.289062 C 20.402344 -24.578125 21.332031 -24.726562 22.195312 -24.726562 C 24.582031 -24.726562 26.621094 -23.929688 28.316406 -22.335938 C 29.144531 -21.558594 29.78125 -20.699219 30.230469 -19.761719 C 30.71875 -18.726562 30.964844 -17.640625 30.964844 -16.496094 C 30.964844 -15.910156 30.847656 -15.285156 30.605469 -14.621094 C 30.480469 -14.273438 30.308594 -13.875 30.09375 -13.429688 C 29.777344 -12.78125 29.410156 -12.035156 28.988281 -11.1875 C 28.652344 -10.523438 28.363281 -9.828125 28.117188 -9.097656 C 27.953125 -8.621094 27.875 -8.210938 27.875 -7.867188 C 27.875 -8.265625 27.800781 -8.65625 27.660156 -9.042969 C 27.453125 -9.605469 27.125 -10.09375 26.679688 -10.5 C 26.273438 -10.867188 25.8125 -11.132812 25.296875 -11.289062 C 24.980469 -11.382812 24.671875 -11.429688 24.367188 -11.429688 C 24.113281 -11.429688 23.90625 -11.402344 23.746094 -11.347656 C 23.796875 -11.363281 23.882812 -11.410156 24.015625 -11.480469 C 24.460938 -11.71875 24.917969 -12.03125 25.390625 -12.414062 C 25.785156 -12.734375 26.078125 -13.023438 26.265625 -13.28125 L 27.496094 -14.957031 L 34.042969 -14.957031 L 33.78125 -10.605469 C 33.6875 -9.039062 33.359375 -7.449219 32.808594 -5.832031 C 32.242188 -4.1875 31.453125 -2.65625 30.441406 -1.246094 C 29.351562 0.277344 28.042969 1.515625 26.519531 2.472656 C 24.785156 3.558594 22.835938 4.105469 20.675781 4.105469 C 19.382812 4.105469 18.1875 3.847656 17.09375 3.339844 C 15.960938 2.808594 14.992188 2.035156 14.191406 1.015625 C 13.023438 -0.472656 12.226562 -2.125 11.796875 -3.945312 L 15.792969 -4.882812 L 18.925781 -2.234375 C 17.207031 -0.199219 15.40625 1.3125 13.523438 2.304688 C 11.515625 3.359375 9.539062 3.886719 7.597656 3.886719 C 6.039062 3.886719 4.589844 3.566406 3.242188 2.929688 C 1.921875 2.300781 0.75 1.394531 -0.269531 0.199219 C -2.210938 -2.070312 -3.179688 -4.996094 -3.179688 -8.574219 C -3.179688 -11.601562 -2.597656 -14.460938 -1.433594 -17.152344 C -0.308594 -19.746094 1.203125 -22.078125 3.105469 -24.15625 C 4.929688 -26.144531 6.953125 -27.867188 9.175781 -29.320312 C 11.410156 -30.78125 13.695312 -31.902344 16.039062 -32.683594 C 18.46875 -33.492188 20.792969 -33.898438 23.007812 -33.898438 C 25.570312 -33.898438 27.707031 -33.296875 29.425781 -32.101562 C 30.480469 -31.367188 31.292969 -30.460938 31.855469 -29.382812 C 32.421875 -28.304688 32.703125 -27.117188 32.703125 -25.832031 C 32.703125 -23.648438 31.867188 -21.449219 30.191406 -19.230469 L 28.484375 -16.976562 L 25.773438 -17.765625 C 25.023438 -17.984375 24.320312 -18.089844 23.660156 -18.089844 C 22.425781 -18.089844 21.296875 -17.816406 20.273438 -17.273438 C 19.050781 -16.621094 17.996094 -15.820312 17.117188 -14.871094 C 16.171875 -13.855469 15.453125 -12.871094 14.953125 -11.914062 C 14.730469 -11.484375 14.570312 -11.117188 14.476562 -10.816406 C 14.445312 -10.722656 14.425781 -10.648438 14.414062 -10.585938 C 14.414062 -10.578125 14.414062 -10.574219 14.414062 -10.574219 C 14.414062 -10.589844 14.414062 -10.613281 14.414062 -10.636719 C 14.414062 -10.785156 14.386719 -10.957031 14.335938 -11.148438 C 14.222656 -11.550781 14.023438 -11.917969 13.738281 -12.257812 C 13.390625 -12.675781 12.964844 -12.980469 12.464844 -13.179688 C 12.121094 -13.316406 11.785156 -13.382812 11.449219 -13.382812 C 11.242188 -13.382812 11.085938 -13.359375 10.980469 -13.316406 C 11.085938 -13.359375 11.242188 -13.460938 11.445312 -13.617188 C 12.140625 -14.15625 12.871094 -14.882812 13.636719 -15.804688 C 14.421875 -16.757812 15.097656 -17.75 15.65625 -18.78125 C 16.125 -19.644531 16.414062 -20.390625 16.519531 -21.023438 L 16.941406 -23.5625 Z M 21.726562 -16.414062 L 20.566406 -20.351562 L 24.617188 -19.675781 C 24.359375 -18.136719 23.777344 -16.535156 22.871094 -14.863281 C 22.058594 -13.363281 21.085938 -11.933594 19.957031 -10.570312 C 18.800781 -9.175781 17.632812 -8.023438 16.449219 -7.113281 C 14.769531 -5.820312 13.105469 -5.175781 11.449219 -5.175781 C 10.738281 -5.175781 10.066406 -5.300781 9.4375 -5.550781 C 8.652344 -5.859375 7.992188 -6.335938 7.453125 -6.980469 C 6.621094 -7.96875 6.207031 -9.1875 6.207031 -10.636719 C 6.207031 -12.136719 6.695312 -13.828125 7.675781 -15.707031 C 8.515625 -17.320312 9.65625 -18.902344 11.105469 -20.457031 C 12.609375 -22.078125 14.378906 -23.429688 16.410156 -24.515625 C 18.644531 -25.703125 21.058594 -26.300781 23.660156 -26.300781 C 25.097656 -26.300781 26.566406 -26.082031 28.0625 -25.648438 L 26.917969 -21.707031 L 23.644531 -24.183594 C 23.988281 -24.636719 24.234375 -25.042969 24.378906 -25.402344 C 24.457031 -25.589844 24.496094 -25.734375 24.496094 -25.832031 C 24.496094 -25.773438 24.523438 -25.6875 24.582031 -25.578125 C 24.640625 -25.46875 24.691406 -25.398438 24.734375 -25.367188 C 24.425781 -25.582031 23.851562 -25.6875 23.007812 -25.6875 C 21.679688 -25.6875 20.222656 -25.425781 18.636719 -24.894531 C 16.964844 -24.339844 15.308594 -23.523438 13.671875 -22.453125 C 12.023438 -21.371094 10.515625 -20.09375 9.15625 -18.609375 C 7.875 -17.210938 6.855469 -15.636719 6.097656 -13.890625 C 5.382812 -12.238281 5.027344 -10.46875 5.027344 -8.574219 C 5.027344 -7.015625 5.339844 -5.871094 5.96875 -5.136719 C 6.230469 -4.828125 6.492188 -4.613281 6.757812 -4.488281 C 6.992188 -4.375 7.273438 -4.320312 7.597656 -4.320312 C 8.1875 -4.320312 8.890625 -4.535156 9.703125 -4.960938 C 10.640625 -5.457031 11.625 -6.3125 12.65625 -7.53125 L 17.917969 -13.761719 L 19.785156 -5.824219 C 19.9375 -5.183594 20.222656 -4.59375 20.648438 -4.054688 L 20.648438 -4.046875 C 20.625 -4.066406 20.597656 -4.085938 20.566406 -4.097656 C 20.546875 -4.109375 20.535156 -4.113281 20.527344 -4.113281 C 20.5625 -4.109375 20.609375 -4.105469 20.675781 -4.105469 C 21.265625 -4.105469 21.757812 -4.230469 22.160156 -4.480469 C 22.769531 -4.863281 23.308594 -5.378906 23.769531 -6.027344 C 24.316406 -6.785156 24.738281 -7.609375 25.042969 -8.496094 C 25.355469 -9.410156 25.539062 -10.277344 25.585938 -11.101562 L 29.683594 -10.851562 L 29.683594 -6.75 L 29.574219 -6.75 L 29.574219 -10.851562 L 32.886719 -8.425781 C 32.277344 -7.597656 31.503906 -6.804688 30.558594 -6.039062 C 29.691406 -5.335938 28.8125 -4.742188 27.917969 -4.257812 C 26.640625 -3.566406 25.457031 -3.222656 24.367188 -3.222656 C 23.109375 -3.222656 22.039062 -3.625 21.15625 -4.425781 C 20.609375 -4.921875 20.210938 -5.519531 19.953125 -6.21875 C 19.761719 -6.742188 19.664062 -7.292969 19.664062 -7.867188 C 19.664062 -9.117188 19.890625 -10.40625 20.34375 -11.742188 C 20.710938 -12.820312 21.144531 -13.859375 21.644531 -14.859375 C 22.054688 -15.675781 22.410156 -16.394531 22.710938 -17.015625 C 22.800781 -17.203125 22.859375 -17.335938 22.886719 -17.410156 C 22.800781 -17.171875 22.757812 -16.867188 22.757812 -16.496094 C 22.757812 -16.402344 22.777344 -16.316406 22.816406 -16.230469 L 22.820312 -16.21875 C 22.792969 -16.257812 22.75 -16.304688 22.695312 -16.355469 C 22.582031 -16.464844 22.414062 -16.519531 22.195312 -16.519531 C 22.117188 -16.519531 21.960938 -16.484375 21.726562 -16.414062 Z M 21.726562 -16.414062 "/></g></g><g style="fill:#ffffff;fill-opacity:1;"><g transform="translate(200.816672, 49.547491)"><path style="stroke:none" d="M -4.972656 -4.558594 C -4.972656 -5.683594 -4.65625 -7.128906 -4.027344 -8.894531 C -3.527344 -10.296875 -2.890625 -11.898438 -2.113281 -13.699219 C -1.355469 -15.457031 -0.535156 -17.28125 0.351562 -19.179688 C 1.199219 -21.007812 2.007812 -22.804688 2.769531 -24.578125 C 3.523438 -26.335938 4.171875 -27.917969 4.714844 -29.332031 C 5.152344 -30.484375 5.40625 -31.339844 5.476562 -31.910156 L 5.910156 -35.523438 L 9.550781 -35.523438 C 11.097656 -35.523438 12.515625 -35.226562 13.800781 -34.625 C 15.136719 -34 16.277344 -33.085938 17.214844 -31.875 C 18.824219 -29.804688 19.679688 -27.371094 19.785156 -24.574219 L 15.683594 -24.421875 L 13.347656 -27.792969 C 13.632812 -27.992188 14.007812 -28.316406 14.480469 -28.773438 C 15.21875 -29.492188 16.058594 -30.222656 17.007812 -30.960938 C 18.113281 -31.828125 19.320312 -32.546875 20.636719 -33.121094 C 22.152344 -33.78125 23.796875 -34.113281 25.558594 -34.113281 C 26.695312 -34.113281 27.734375 -33.875 28.683594 -33.402344 C 29.691406 -32.898438 30.519531 -32.167969 31.175781 -31.210938 C 32.15625 -29.773438 32.648438 -28.050781 32.648438 -26.046875 C 32.648438 -24.21875 32.210938 -22.289062 31.339844 -20.253906 C 30.46875 -18.222656 29.164062 -16.371094 27.425781 -14.703125 C 25.609375 -12.960938 23.351562 -11.6875 20.65625 -10.882812 L 8.875 -7.367188 L 16.183594 -17.253906 C 16.507812 -17.699219 16.769531 -18.238281 16.957031 -18.878906 C 17.171875 -19.605469 17.277344 -20.128906 17.277344 -20.457031 C 17.277344 -20.28125 17.3125 -20.085938 17.378906 -19.871094 C 17.507812 -19.453125 17.726562 -19.074219 18.039062 -18.734375 C 18.382812 -18.359375 18.789062 -18.089844 19.253906 -17.921875 C 19.542969 -17.816406 19.816406 -17.765625 20.078125 -17.765625 C 20.167969 -17.765625 20.238281 -17.769531 20.289062 -17.78125 C 20.246094 -17.773438 20.179688 -17.75 20.09375 -17.714844 C 19.757812 -17.574219 19.34375 -17.335938 18.847656 -17.003906 C 17.835938 -16.320312 16.933594 -15.398438 16.144531 -14.238281 C 15.808594 -13.71875 15.351562 -12.855469 14.78125 -11.648438 C 14.164062 -10.347656 13.546875 -8.925781 12.925781 -7.375 C 12.296875 -5.800781 11.71875 -4.269531 11.195312 -2.785156 C 10.6875 -1.347656 10.304688 -0.140625 10.042969 0.839844 L 9.230469 3.886719 L 6.078125 3.886719 C 4.976562 3.886719 3.746094 3.75 2.398438 3.480469 C 0.679688 3.136719 -0.84375 2.453125 -2.167969 1.421875 C -3.113281 0.683594 -3.828125 -0.226562 -4.3125 -1.308594 C -4.753906 -2.296875 -4.972656 -3.378906 -4.972656 -4.558594 Z M 3.234375 -4.558594 C 3.234375 -4.53125 3.238281 -4.511719 3.238281 -4.492188 C 3.230469 -4.539062 3.210938 -4.589844 3.1875 -4.648438 C 3.109375 -4.816406 3.007812 -4.953125 2.871094 -5.058594 C 3.175781 -4.820312 3.554688 -4.65625 4.007812 -4.566406 C 4.828125 -4.402344 5.515625 -4.320312 6.078125 -4.320312 L 6.078125 -0.21875 L 2.113281 -1.273438 C 2.429688 -2.464844 2.878906 -3.878906 3.457031 -5.515625 C 4.015625 -7.109375 4.632812 -8.742188 5.304688 -10.425781 C 5.988281 -12.128906 6.675781 -13.710938 7.363281 -15.160156 C 8.089844 -16.703125 8.757812 -17.9375 9.363281 -18.863281 C 10.742188 -20.886719 12.375 -22.535156 14.253906 -23.804688 C 16.394531 -25.25 18.335938 -25.972656 20.078125 -25.972656 C 20.773438 -25.972656 21.429688 -25.863281 22.042969 -25.640625 C 22.832031 -25.355469 23.511719 -24.910156 24.070312 -24.300781 C 25.015625 -23.28125 25.484375 -22 25.484375 -20.457031 C 25.484375 -19.339844 25.265625 -18.039062 24.828125 -16.558594 C 24.367188 -14.988281 23.683594 -13.597656 22.78125 -12.375 L 19.480469 -14.816406 L 18.308594 -18.746094 C 19.738281 -19.171875 20.882812 -19.800781 21.742188 -20.625 C 22.679688 -21.523438 23.363281 -22.476562 23.796875 -23.488281 C 24.226562 -24.488281 24.441406 -25.34375 24.441406 -26.046875 C 24.441406 -26.269531 24.421875 -26.441406 24.390625 -26.570312 L 24.394531 -26.582031 C 24.542969 -26.367188 24.75 -26.191406 25.011719 -26.0625 C 25.21875 -25.957031 25.402344 -25.90625 25.558594 -25.90625 C 24.9375 -25.90625 24.390625 -25.804688 23.917969 -25.597656 C 23.242188 -25.300781 22.625 -24.9375 22.066406 -24.5 C 21.347656 -23.9375 20.726562 -23.402344 20.199219 -22.886719 C 19.402344 -22.113281 18.675781 -21.5 18.019531 -21.046875 L 11.863281 -16.785156 L 11.582031 -24.265625 C 11.542969 -25.304688 11.257812 -26.164062 10.730469 -26.84375 C 10.605469 -27.007812 10.472656 -27.121094 10.332031 -27.1875 C 10.144531 -27.273438 9.886719 -27.316406 9.550781 -27.316406 L 9.550781 -31.421875 L 13.625 -30.933594 C 13.476562 -29.691406 13.0625 -28.179688 12.378906 -26.398438 C 11.800781 -24.882812 11.109375 -23.195312 10.308594 -21.332031 C 9.515625 -19.488281 8.675781 -17.613281 7.789062 -15.714844 C 6.9375 -13.886719 6.148438 -12.128906 5.421875 -10.449219 C 4.71875 -8.8125 4.144531 -7.375 3.703125 -6.140625 C 3.519531 -5.617188 3.382812 -5.183594 3.300781 -4.835938 C 3.269531 -4.710938 3.25 -4.605469 3.238281 -4.527344 C 3.234375 -4.507812 3.234375 -4.496094 3.234375 -4.492188 C 3.234375 -4.507812 3.234375 -4.53125 3.234375 -4.558594 Z M 3.234375 -4.558594 "/></g></g><g style="fill:#ffffff;fill-opacity:1;"><g transform="translate(224.746998, 49.547491)"><path style="stroke:none" d="M 19.410156 -24.289062 C 20.402344 -24.578125 21.332031 -24.726562 22.195312 -24.726562 C 24.582031 -24.726562 26.621094 -23.929688 28.316406 -22.335938 C 29.144531 -21.558594 29.78125 -20.699219 30.230469 -19.761719 C 30.71875 -18.726562 30.964844 -17.640625 30.964844 -16.496094 C 30.964844 -15.910156 30.847656 -15.285156 30.605469 -14.621094 C 30.480469 -14.273438 30.308594 -13.875 30.09375 -13.429688 C 29.777344 -12.78125 29.410156 -12.035156 28.988281 -11.1875 C 28.652344 -10.523438 28.363281 -9.828125 28.117188 -9.097656 C 27.953125 -8.621094 27.875 -8.210938 27.875 -7.867188 C 27.875 -8.265625 27.800781 -8.65625 27.660156 -9.042969 C 27.453125 -9.605469 27.125 -10.09375 26.679688 -10.5 C 26.273438 -10.867188 25.8125 -11.132812 25.296875 -11.289062 C 24.980469 -11.382812 24.671875 -11.429688 24.367188 -11.429688 C 24.113281 -11.429688 23.90625 -11.402344 23.746094 -11.347656 C 23.796875 -11.363281 23.882812 -11.410156 24.015625 -11.480469 C 24.460938 -11.71875 24.917969 -12.03125 25.390625 -12.414062 C 25.785156 -12.734375 26.078125 -13.023438 26.265625 -13.28125 L 27.496094 -14.957031 L 34.042969 -14.957031 L 33.78125 -10.605469 C 33.6875 -9.039062 33.359375 -7.449219 32.808594 -5.832031 C 32.242188 -4.1875 31.453125 -2.65625 30.441406 -1.246094 C 29.351562 0.277344 28.042969 1.515625 26.519531 2.472656 C 24.785156 3.558594 22.835938 4.105469 20.675781 4.105469 C 19.382812 4.105469 18.1875 3.847656 17.09375 3.339844 C 15.960938 2.808594 14.992188 2.035156 14.191406 1.015625 C 13.023438 -0.472656 12.226562 -2.125 11.796875 -3.945312 L 15.792969 -4.882812 L 18.925781 -2.234375 C 17.207031 -0.199219 15.40625 1.3125 13.523438 2.304688 C 11.515625 3.359375 9.539062 3.886719 7.597656 3.886719 C 6.039062 3.886719 4.589844 3.566406 3.242188 2.929688 C 1.921875 2.300781 0.75 1.394531 -0.269531 0.199219 C -2.210938 -2.070312 -3.179688 -4.996094 -3.179688 -8.574219 C -3.179688 -11.601562 -2.597656 -14.460938 -1.433594 -17.152344 C -0.308594 -19.746094 1.203125 -22.078125 3.105469 -24.15625 C 4.929688 -26.144531 6.953125 -27.867188 9.175781 -29.320312 C 11.410156 -30.78125 13.695312 -31.902344 16.039062 -32.683594 C 18.46875 -33.492188 20.792969 -33.898438 23.007812 -33.898438 C 25.570312 -33.898438 27.707031 -33.296875 29.425781 -32.101562 C 30.480469 -31.367188 31.292969 -30.460938 31.855469 -29.382812 C 32.421875 -28.304688 32.703125 -27.117188 32.703125 -25.832031 C 32.703125 -23.648438 31.867188 -21.449219 30.191406 -19.230469 L 28.484375 -16.976562 L 25.773438 -17.765625 C 25.023438 -17.984375 24.320312 -18.089844 23.660156 -18.089844 C 22.425781 -18.089844 21.296875 -17.816406 20.273438 -17.273438 C 19.050781 -16.621094 17.996094 -15.820312 17.117188 -14.871094 C 16.171875 -13.855469 15.453125 -12.871094 14.953125 -11.914062 C 14.730469 -11.484375 14.570312 -11.117188 14.476562 -10.816406 C 14.445312 -10.722656 14.425781 -10.648438 14.414062 -10.585938 C 14.414062 -10.578125 14.414062 -10.574219 14.414062 -10.574219 C 14.414062 -10.589844 14.414062 -10.613281 14.414062 -10.636719 C 14.414062 -10.785156 14.386719 -10.957031 14.335938 -11.148438 C 14.222656 -11.550781 14.023438 -11.917969 13.738281 -12.257812 C 13.390625 -12.675781 12.964844 -12.980469 12.464844 -13.179688 C 12.121094 -13.316406 11.785156 -13.382812 11.449219 -13.382812 C 11.242188 -13.382812 11.085938 -13.359375 10.980469 -13.316406 C 11.085938 -13.359375 11.242188 -13.460938 11.445312 -13.617188 C 12.140625 -14.15625 12.871094 -14.882812 13.636719 -15.804688 C 14.421875 -16.757812 15.097656 -17.75 15.65625 -18.78125 C 16.125 -19.644531 16.414062 -20.390625 16.519531 -21.023438 L 16.941406 -23.5625 Z M 21.726562 -16.414062 L 20.566406 -20.351562 L 24.617188 -19.675781 C 24.359375 -18.136719 23.777344 -16.535156 22.871094 -14.863281 C 22.058594 -13.363281 21.085938 -11.933594 19.957031 -10.570312 C 18.800781 -9.175781 17.632812 -8.023438 16.449219 -7.113281 C 14.769531 -5.820312 13.105469 -5.175781 11.449219 -5.175781 C 10.738281 -5.175781 10.066406 -5.300781 9.4375 -5.550781 C 8.652344 -5.859375 7.992188 -6.335938 7.453125 -6.980469 C 6.621094 -7.96875 6.207031 -9.1875 6.207031 -10.636719 C 6.207031 -12.136719 6.695312 -13.828125 7.675781 -15.707031 C 8.515625 -17.320312 9.65625 -18.902344 11.105469 -20.457031 C 12.609375 -22.078125 14.378906 -23.429688 16.410156 -24.515625 C 18.644531 -25.703125 21.058594 -26.300781 23.660156 -26.300781 C 25.097656 -26.300781 26.566406 -26.082031 28.0625 -25.648438 L 26.917969 -21.707031 L 23.644531 -24.183594 C 23.988281 -24.636719 24.234375 -25.042969 24.378906 -25.402344 C 24.457031 -25.589844 24.496094 -25.734375 24.496094 -25.832031 C 24.496094 -25.773438 24.523438 -25.6875 24.582031 -25.578125 C 24.640625 -25.46875 24.691406 -25.398438 24.734375 -25.367188 C 24.425781 -25.582031 23.851562 -25.6875 23.007812 -25.6875 C 21.679688 -25.6875 20.222656 -25.425781 18.636719 -24.894531 C 16.964844 -24.339844 15.308594 -23.523438 13.671875 -22.453125 C 12.023438 -21.371094 10.515625 -20.09375 9.15625 -18.609375 C 7.875 -17.210938 6.855469 -15.636719 6.097656 -13.890625 C 5.382812 -12.238281 5.027344 -10.46875 5.027344 -8.574219 C 5.027344 -7.015625 5.339844 -5.871094 5.96875 -5.136719 C 6.230469 -4.828125 6.492188 -4.613281 6.757812 -4.488281 C 6.992188 -4.375 7.273438 -4.320312 7.597656 -4.320312 C 8.1875 -4.320312 8.890625 -4.535156 9.703125 -4.960938 C 10.640625 -5.457031 11.625 -6.3125 12.65625 -7.53125 L 17.917969 -13.761719 L 19.785156 -5.824219 C 19.9375 -5.183594 20.222656 -4.59375 20.648438 -4.054688 L 20.648438 -4.046875 C 20.625 -4.066406 20.597656 -4.085938 20.566406 -4.097656 C 20.546875 -4.109375 20.535156 -4.113281 20.527344 -4.113281 C 20.5625 -4.109375 20.609375 -4.105469 20.675781 -4.105469 C 21.265625 -4.105469 21.757812 -4.230469 22.160156 -4.480469 C 22.769531 -4.863281 23.308594 -5.378906 23.769531 -6.027344 C 24.316406 -6.785156 24.738281 -7.609375 25.042969 -8.496094 C 25.355469 -9.410156 25.539062 -10.277344 25.585938 -11.101562 L 29.683594 -10.851562 L 29.683594 -6.75 L 29.574219 -6.75 L 29.574219 -10.851562 L 32.886719 -8.425781 C 32.277344 -7.597656 31.503906 -6.804688 30.558594 -6.039062 C 29.691406 -5.335938 28.8125 -4.742188 27.917969 -4.257812 C 26.640625 -3.566406 25.457031 -3.222656 24.367188 -3.222656 C 23.109375 -3.222656 22.039062 -3.625 21.15625 -4.425781 C 20.609375 -4.921875 20.210938 -5.519531 19.953125 -6.21875 C 19.761719 -6.742188 19.664062 -7.292969 19.664062 -7.867188 C 19.664062 -9.117188 19.890625 -10.40625 20.34375 -11.742188 C 20.710938 -12.820312 21.144531 -13.859375 21.644531 -14.859375 C 22.054688 -15.675781 22.410156 -16.394531 22.710938 -17.015625 C 22.800781 -17.203125 22.859375 -17.335938 22.886719 -17.410156 C 22.800781 -17.171875 22.757812 -16.867188 22.757812 -16.496094 C 22.757812 -16.402344 22.777344 -16.316406 22.816406 -16.230469 L 22.820312 -16.21875 C 22.792969 -16.257812 22.75 -16.304688 22.695312 -16.355469 C 22.582031 -16.464844 22.414062 -16.519531 22.195312 -16.519531 C 22.117188 -16.519531 21.960938 -16.484375 21.726562 -16.414062 Z M 21.726562 -16.414062 "/></g></g><g style="fill:#ffffff;fill-opacity:1;"><g transform="translate(254.266511, 49.547491)"><path style="stroke:none" d="M 23.722656 -14.0625 C 23.425781 -12.566406 22.90625 -10.867188 22.167969 -8.964844 C 21.425781 -7.039062 20.484375 -5.171875 19.351562 -3.359375 C 18.105469 -1.359375 16.621094 0.3125 14.90625 1.65625 C 12.824219 3.289062 10.496094 4.105469 7.921875 4.105469 C 5.75 4.105469 3.808594 3.5 2.101562 2.289062 C 0.519531 1.167969 -0.695312 -0.300781 -1.546875 -2.109375 C -2.347656 -3.820312 -2.746094 -5.667969 -2.746094 -7.652344 C -2.746094 -9.671875 -2.4375 -11.734375 -1.824219 -13.847656 C -1.273438 -15.738281 -0.621094 -17.566406 0.125 -19.34375 L 1.96875 -23.730469 L 5.753906 -22.140625 L 3.773438 -18.546875 C 2.265625 -19.375 1.148438 -20.570312 0.429688 -22.125 C -0.167969 -23.414062 -0.46875 -24.738281 -0.46875 -26.101562 C -0.46875 -27.957031 0.0234375 -29.535156 1.003906 -30.84375 L 2.234375 -32.484375 L 4.289062 -32.484375 C 4.855469 -32.484375 5.5 -32.535156 6.214844 -32.636719 C 6.910156 -32.734375 7.339844 -32.808594 7.503906 -32.855469 L 8.683594 -28.925781 L 5.109375 -30.941406 C 6.308594 -33.066406 7.367188 -35.175781 8.289062 -37.277344 C 9.203125 -39.359375 9.964844 -41.378906 10.570312 -43.328125 L 11.503906 -46.339844 L 14.652344 -46.210938 C 16.082031 -46.15625 17.546875 -45.792969 19.039062 -45.125 C 20.578125 -44.441406 21.890625 -43.496094 22.984375 -42.289062 C 24.398438 -40.730469 25.105469 -38.917969 25.105469 -36.847656 C 25.105469 -35.402344 24.726562 -33.972656 23.972656 -32.554688 C 23.523438 -31.714844 23.046875 -30.847656 22.542969 -29.953125 C 22.261719 -29.453125 22.074219 -28.976562 21.980469 -28.523438 L 17.960938 -29.359375 L 17.960938 -33.460938 C 17.914062 -33.460938 17.855469 -33.457031 17.789062 -33.449219 C 18.109375 -33.496094 18.4375 -33.515625 18.777344 -33.515625 C 20.992188 -33.515625 22.789062 -33 24.167969 -31.964844 C 25.539062 -30.933594 26.464844 -29.628906 26.941406 -28.042969 C 27.273438 -26.933594 27.4375 -25.835938 27.4375 -24.746094 C 27.4375 -24.144531 27.414062 -23.589844 27.367188 -23.082031 C 27.292969 -22.308594 27.148438 -21.652344 26.929688 -21.105469 L 25.71875 -18.078125 L 22.492188 -18.574219 C 22.230469 -18.613281 21.976562 -18.632812 21.734375 -18.632812 L 20.351562 -18.632812 C 19.460938 -18.632812 18.566406 -18.59375 17.675781 -18.515625 C 16.8125 -18.4375 15.910156 -18.304688 14.96875 -18.117188 L 14.164062 -22.140625 L 17.625 -19.9375 C 17.453125 -19.667969 17.167969 -19.121094 16.761719 -18.296875 C 16.320312 -17.398438 15.851562 -16.371094 15.351562 -15.21875 C 14.886719 -14.144531 14.496094 -13.09375 14.179688 -12.0625 C 13.9375 -11.277344 13.816406 -10.675781 13.816406 -10.257812 C 13.816406 -10.359375 13.792969 -10.488281 13.75 -10.644531 C 13.644531 -11.007812 13.453125 -11.347656 13.183594 -11.65625 C 12.859375 -12.023438 12.476562 -12.292969 12.03125 -12.464844 C 11.75 -12.570312 11.484375 -12.625 11.234375 -12.625 C 11.167969 -12.625 11.117188 -12.621094 11.074219 -12.613281 C 11.085938 -12.613281 11.109375 -12.621094 11.148438 -12.632812 C 11.335938 -12.695312 11.570312 -12.808594 11.855469 -12.96875 C 12.613281 -13.390625 13.398438 -13.976562 14.21875 -14.722656 C 15.011719 -15.453125 15.695312 -16.25 16.269531 -17.121094 Z M 15.675781 -15.675781 L 19.699219 -14.871094 L 23.128906 -12.617188 C 22.183594 -11.171875 21.058594 -9.855469 19.753906 -8.664062 C 18.472656 -7.496094 17.179688 -6.542969 15.875 -5.808594 C 14.21875 -4.878906 12.671875 -4.414062 11.234375 -4.414062 C 10.476562 -4.414062 9.769531 -4.542969 9.109375 -4.792969 C 8.28125 -5.109375 7.582031 -5.59375 7.003906 -6.25 C 6.074219 -7.316406 5.609375 -8.648438 5.609375 -10.257812 C 5.609375 -11.5 5.851562 -12.90625 6.335938 -14.476562 C 6.738281 -15.796875 7.234375 -17.128906 7.820312 -18.480469 C 8.371094 -19.753906 8.894531 -20.894531 9.394531 -21.914062 C 9.929688 -23.007812 10.367188 -23.820312 10.703125 -24.34375 L 11.640625 -25.820312 L 13.359375 -26.164062 C 14.589844 -26.410156 15.785156 -26.585938 16.945312 -26.691406 C 18.082031 -26.792969 19.214844 -26.84375 20.351562 -26.84375 L 21.734375 -26.84375 C 22.394531 -26.84375 23.066406 -26.789062 23.742188 -26.6875 L 23.117188 -22.628906 L 19.308594 -24.152344 C 19.246094 -24.003906 19.207031 -23.871094 19.183594 -23.753906 C 19.1875 -23.765625 19.191406 -23.800781 19.195312 -23.859375 C 19.21875 -24.109375 19.230469 -24.40625 19.230469 -24.746094 C 19.230469 -25.03125 19.179688 -25.34375 19.078125 -25.683594 C 19.121094 -25.542969 19.175781 -25.449219 19.246094 -25.398438 C 19.324219 -25.335938 19.402344 -25.292969 19.472656 -25.257812 C 19.488281 -25.25 19.503906 -25.246094 19.511719 -25.242188 C 19.507812 -25.242188 19.5 -25.246094 19.492188 -25.25 C 19.328125 -25.289062 19.089844 -25.308594 18.777344 -25.308594 C 18.828125 -25.308594 18.882812 -25.3125 18.949219 -25.324219 C 18.628906 -25.277344 18.300781 -25.253906 17.960938 -25.253906 L 12.914062 -25.253906 L 13.945312 -30.195312 C 14.210938 -31.476562 14.695312 -32.738281 15.390625 -33.976562 C 15.863281 -34.816406 16.308594 -35.632812 16.730469 -36.417969 C 16.839844 -36.628906 16.898438 -36.773438 16.898438 -36.847656 C 16.898438 -36.835938 16.90625 -36.808594 16.917969 -36.773438 C 16.925781 -36.757812 16.929688 -36.746094 16.9375 -36.734375 C 16.933594 -36.742188 16.921875 -36.757812 16.902344 -36.777344 C 16.585938 -37.128906 16.179688 -37.414062 15.691406 -37.632812 C 15.160156 -37.871094 14.703125 -37.996094 14.324219 -38.011719 L 14.488281 -42.113281 L 18.410156 -40.894531 C 17.710938 -38.648438 16.84375 -36.34375 15.804688 -33.976562 C 14.773438 -31.625 13.589844 -29.269531 12.257812 -26.90625 L 11.445312 -25.46875 L 9.863281 -24.992188 C 9.300781 -24.824219 8.464844 -24.664062 7.351562 -24.507812 C 6.257812 -24.355469 5.238281 -24.277344 4.289062 -24.277344 L 4.289062 -28.382812 L 7.570312 -25.917969 C 7.65625 -26.035156 7.714844 -26.144531 7.746094 -26.25 L 7.746094 -26.253906 C 7.742188 -26.214844 7.738281 -26.164062 7.738281 -26.101562 C 7.738281 -25.945312 7.785156 -25.769531 7.875 -25.574219 C 7.839844 -25.648438 7.792969 -25.703125 7.730469 -25.738281 L 10.964844 -23.957031 L 7.6875 -16.148438 C 7.0625 -14.667969 6.519531 -13.132812 6.054688 -11.550781 C 5.660156 -10.1875 5.460938 -8.890625 5.460938 -7.652344 C 5.460938 -6.886719 5.601562 -6.199219 5.886719 -5.59375 C 6.125 -5.089844 6.445312 -4.695312 6.851562 -4.40625 C 7.136719 -4.203125 7.492188 -4.105469 7.921875 -4.105469 C 8.605469 -4.105469 9.246094 -4.335938 9.839844 -4.804688 C 10.800781 -5.558594 11.652344 -6.527344 12.394531 -7.710938 C 13.25 -9.082031 13.957031 -10.488281 14.515625 -11.929688 C 15.082031 -13.390625 15.46875 -14.640625 15.675781 -15.675781 Z M 15.675781 -15.675781 "/></g></g><g style="fill:#ffffff;fill-opacity:1;"><g transform="translate(274.344102, 49.547491)"><path style="stroke:none" d="M 15.050781 -19.863281 C 15.050781 -19.941406 15.050781 -20 15.042969 -20.042969 C 15.046875 -20.027344 15.054688 -19.996094 15.070312 -19.953125 C 15.15625 -19.726562 15.304688 -19.523438 15.515625 -19.347656 C 15.566406 -19.308594 15.625 -19.273438 15.695312 -19.25 C 15.722656 -19.238281 15.746094 -19.234375 15.765625 -19.230469 C 15.765625 -19.230469 15.753906 -19.230469 15.738281 -19.230469 C 15.453125 -19.230469 15.105469 -19.152344 14.699219 -18.992188 C 14.21875 -18.808594 13.75 -18.527344 13.289062 -18.152344 L 10.691406 -21.328125 L 10.691406 -25.429688 L 11.015625 -25.429688 C 12.53125 -25.429688 14.003906 -25.117188 15.4375 -24.488281 C 16.835938 -23.871094 18.160156 -22.914062 19.402344 -21.617188 L 24.140625 -16.683594 L 17.558594 -14.828125 C 16.820312 -14.621094 16.152344 -14.21875 15.550781 -13.625 C 14.777344 -12.867188 14.183594 -12.070312 13.773438 -11.238281 C 13.441406 -10.5625 13.273438 -10.054688 13.273438 -9.714844 C 13.273438 -9.988281 13.160156 -10.285156 12.925781 -10.609375 C 12.632812 -11.007812 12.265625 -11.304688 11.8125 -11.503906 C 11.515625 -11.636719 11.230469 -11.703125 10.960938 -11.703125 C 10.796875 -11.703125 10.667969 -11.679688 10.578125 -11.636719 C 10.660156 -11.675781 10.789062 -11.769531 10.957031 -11.917969 C 11.617188 -12.503906 12.261719 -13.28125 12.890625 -14.25 C 13.5625 -15.289062 14.109375 -16.367188 14.527344 -17.484375 C 14.878906 -18.410156 15.050781 -19.203125 15.050781 -19.863281 Z M 23.261719 -19.863281 C 23.261719 -18.207031 22.910156 -16.449219 22.210938 -14.589844 C 21.582031 -12.921875 20.769531 -11.320312 19.777344 -9.789062 C 18.742188 -8.191406 17.617188 -6.851562 16.394531 -5.773438 C 14.675781 -4.253906 12.867188 -3.492188 10.960938 -3.492188 C 10.078125 -3.492188 9.261719 -3.660156 8.507812 -3.988281 C 7.605469 -4.386719 6.867188 -4.984375 6.285156 -5.78125 C 5.472656 -6.898438 5.066406 -8.210938 5.066406 -9.714844 C 5.066406 -11.328125 5.515625 -13.046875 6.414062 -14.867188 C 7.234375 -16.53125 8.359375 -18.066406 9.792969 -19.476562 C 11.398438 -21.054688 13.242188 -22.136719 15.328125 -22.726562 L 16.441406 -18.777344 L 13.484375 -15.933594 C 12.988281 -16.449219 12.539062 -16.792969 12.132812 -16.972656 C 11.753906 -17.140625 11.382812 -17.222656 11.015625 -17.222656 L -0.804688 -17.222656 L 8.09375 -24.503906 C 9.226562 -25.429688 10.4375 -26.144531 11.730469 -26.644531 C 13.09375 -27.175781 14.429688 -27.4375 15.738281 -27.4375 C 17.671875 -27.4375 19.355469 -26.839844 20.789062 -25.640625 C 21.667969 -24.902344 22.320312 -23.980469 22.738281 -22.878906 C 23.085938 -21.96875 23.261719 -20.964844 23.261719 -19.863281 Z M -3.074219 -7.707031 C -3.074219 -9.640625 -2.824219 -11.496094 -2.320312 -13.269531 C -1.828125 -15.027344 -1.144531 -16.636719 -0.273438 -18.105469 L 3.257812 -16.007812 L -0.847656 -16.007812 L -0.847656 -16.496094 C -0.847656 -19.230469 -0.164062 -21.765625 1.207031 -24.105469 C 2.460938 -26.25 4.105469 -28.128906 6.140625 -29.730469 C 8.105469 -31.28125 10.226562 -32.480469 12.503906 -33.335938 C 14.851562 -34.214844 17.160156 -34.65625 19.429688 -34.65625 C 21.550781 -34.65625 23.511719 -34.238281 25.304688 -33.40625 C 27.332031 -32.46875 28.929688 -30.996094 30.105469 -28.992188 C 31.222656 -27.085938 31.78125 -24.746094 31.78125 -21.976562 C 31.78125 -19.742188 31.425781 -17.414062 30.71875 -14.992188 C 30.03125 -12.636719 29.054688 -10.355469 27.789062 -8.15625 C 26.507812 -5.929688 24.984375 -3.925781 23.214844 -2.136719 C 21.375 -0.273438 19.316406 1.222656 17.042969 2.347656 C 14.605469 3.554688 12 4.160156 9.226562 4.160156 C 7.191406 4.160156 5.238281 3.648438 3.359375 2.628906 C 1.507812 1.625 -0.00390625 0.257812 -1.171875 -1.472656 C -2.441406 -3.339844 -3.074219 -5.417969 -3.074219 -7.707031 Z M 5.136719 -7.707031 C 5.136719 -7.097656 5.296875 -6.554688 5.625 -6.070312 C 6.046875 -5.449219 6.597656 -4.953125 7.277344 -4.582031 C 7.933594 -4.226562 8.582031 -4.050781 9.226562 -4.050781 C 10.71875 -4.050781 12.113281 -4.367188 13.402344 -5.007812 C 14.855469 -5.726562 16.179688 -6.691406 17.375 -7.90625 C 18.648438 -9.191406 19.746094 -10.636719 20.671875 -12.25 C 21.613281 -13.882812 22.335938 -15.566406 22.839844 -17.296875 C 23.328125 -18.964844 23.574219 -20.523438 23.574219 -21.976562 C 23.574219 -23.261719 23.390625 -24.214844 23.023438 -24.84375 C 22.714844 -25.371094 22.324219 -25.742188 21.851562 -25.960938 C 21.152344 -26.285156 20.34375 -26.449219 19.429688 -26.449219 C 18.152344 -26.449219 16.804688 -26.183594 15.386719 -25.652344 C 13.90625 -25.097656 12.519531 -24.308594 11.226562 -23.289062 C 10.003906 -22.324219 9.023438 -21.214844 8.289062 -19.960938 C 7.671875 -18.898438 7.359375 -17.746094 7.359375 -16.496094 L 7.359375 -14.882812 L 6.785156 -13.914062 C 6.28125 -13.066406 5.878906 -12.105469 5.578125 -11.042969 C 5.28125 -9.996094 5.136719 -8.882812 5.136719 -7.707031 Z M 5.136719 -7.707031 "/></g></g><g style="fill:#013e80;fill-opacity:1;"><g transform="translate(4.595912, 49.547491)"><path style="stroke:none" d=""/></g></g><g style="fill:#013e80;fill-opacity:1;"><g transform="translate(17.133749, 49.547491)"><path style="stroke:none" d="M 1.515625 -7.21875 C 1.515625 -9.351562 1.75 -11.675781 2.21875 -14.1875 C 2.695312 -16.707031 3.285156 -19.273438 3.984375 -21.890625 C 4.691406 -24.515625 5.394531 -27.046875 6.09375 -29.484375 C 6.800781 -31.929688 7.390625 -34.160156 7.859375 -36.171875 C 8.335938 -38.179688 8.578125 -39.835938 8.578125 -41.140625 C 8.578125 -41.609375 8.484375 -42.140625 8.296875 -42.734375 C 8.117188 -43.328125 7.941406 -43.894531 7.765625 -44.4375 C 8.085938 -44.476562 8.410156 -44.503906 8.734375 -44.515625 C 9.054688 -44.535156 9.382812 -44.546875 9.71875 -44.546875 C 11.300781 -44.546875 12.789062 -44.273438 14.1875 -43.734375 C 15.582031 -43.191406 16.710938 -42.320312 17.578125 -41.125 C 18.453125 -39.9375 18.890625 -38.347656 18.890625 -36.359375 C 18.890625 -35.203125 18.660156 -33.828125 18.203125 -32.234375 C 17.753906 -30.640625 17.203125 -28.847656 16.546875 -26.859375 C 15.898438 -24.867188 15.257812 -22.695312 14.625 -20.34375 C 13.988281 -18 13.507812 -15.488281 13.1875 -12.8125 L 13.40625 -12.8125 C 13.625 -12.8125 14.179688 -13.328125 15.078125 -14.359375 C 15.984375 -15.390625 17.113281 -16.765625 18.46875 -18.484375 C 19.832031 -20.203125 21.289062 -22.109375 22.84375 -24.203125 C 24.394531 -26.296875 25.941406 -28.398438 27.484375 -30.515625 C 29.023438 -32.640625 30.414062 -34.625 31.65625 -36.46875 C 32.90625 -38.3125 33.910156 -39.863281 34.671875 -41.125 C 35.429688 -42.394531 35.8125 -43.175781 35.8125 -43.46875 C 37.40625 -43.070312 38.753906 -42.328125 39.859375 -41.234375 C 40.960938 -40.148438 41.515625 -38.847656 41.515625 -37.328125 C 41.515625 -36.097656 41.078125 -34.597656 40.203125 -32.828125 C 39.335938 -31.054688 38.179688 -29.09375 36.734375 -26.9375 C 35.285156 -24.789062 33.691406 -22.578125 31.953125 -20.296875 C 30.222656 -18.015625 28.476562 -15.75 26.71875 -13.5 C 24.96875 -11.257812 23.320312 -9.144531 21.78125 -7.15625 C 20.25 -5.164062 18.972656 -3.398438 17.953125 -1.859375 C 16.941406 -0.328125 16.328125 0.867188 16.109375 1.734375 C 14.878906 1.660156 13.429688 1.429688 11.765625 1.046875 C 10.109375 0.671875 8.5 0.125 6.9375 -0.59375 C 5.382812 -1.320312 4.09375 -2.238281 3.0625 -3.34375 C 2.03125 -4.445312 1.515625 -5.738281 1.515625 -7.21875 Z M 1.515625 -7.21875 "/></g></g><g style="fill:#013e80;fill-opacity:1;"><g transform="translate(48.226891, 49.547491)"><path style="stroke:none" d="M 19.15625 -19.859375 C 19.15625 -21.054688 18.816406 -21.929688 18.140625 -22.484375 C 17.472656 -23.046875 16.671875 -23.328125 15.734375 -23.328125 C 14.941406 -23.328125 14.101562 -23.15625 13.21875 -22.8125 C 12.332031 -22.46875 11.488281 -21.972656 10.6875 -21.328125 L 11.015625 -21.328125 C 11.953125 -21.328125 12.875 -21.125 13.78125 -20.71875 C 14.6875 -20.320312 15.570312 -19.675781 16.4375 -18.78125 C 15.03125 -18.375 13.773438 -17.628906 12.671875 -16.546875 C 11.566406 -15.460938 10.707031 -14.296875 10.09375 -13.046875 C 9.476562 -11.796875 9.171875 -10.6875 9.171875 -9.71875 C 9.171875 -9.101562 9.316406 -8.59375 9.609375 -8.1875 C 9.898438 -7.789062 10.351562 -7.59375 10.96875 -7.59375 C 11.832031 -7.59375 12.734375 -8.007812 13.671875 -8.84375 C 14.609375 -9.675781 15.492188 -10.734375 16.328125 -12.015625 C 17.160156 -13.304688 17.835938 -14.644531 18.359375 -16.03125 C 18.890625 -17.425781 19.15625 -18.703125 19.15625 -19.859375 Z M 1.03125 -7.703125 C 1.03125 -9.265625 1.226562 -10.75 1.625 -12.15625 C 2.019531 -13.5625 2.5625 -14.847656 3.25 -16.015625 L 3.25 -16.5 C 3.25 -18.488281 3.742188 -20.332031 4.734375 -22.03125 C 5.734375 -23.726562 7.046875 -25.21875 8.671875 -26.5 C 10.304688 -27.789062 12.0625 -28.785156 13.9375 -29.484375 C 15.820312 -30.191406 17.648438 -30.546875 19.421875 -30.546875 C 20.941406 -30.546875 22.328125 -30.253906 23.578125 -29.671875 C 24.828125 -29.097656 25.820312 -28.175781 26.5625 -26.90625 C 27.300781 -25.644531 27.671875 -24.003906 27.671875 -21.984375 C 27.671875 -20.128906 27.375 -18.179688 26.78125 -16.140625 C 26.1875 -14.097656 25.335938 -12.117188 24.234375 -10.203125 C 23.128906 -8.285156 21.816406 -6.554688 20.296875 -5.015625 C 18.773438 -3.484375 17.082031 -2.253906 15.21875 -1.328125 C 13.351562 -0.410156 11.351562 0.046875 9.21875 0.046875 C 7.882812 0.046875 6.582031 -0.296875 5.3125 -0.984375 C 4.050781 -1.671875 3.019531 -2.597656 2.21875 -3.765625 C 1.425781 -4.941406 1.03125 -6.253906 1.03125 -7.703125 Z M 1.03125 -7.703125 "/></g></g><g style="fill:#013e80;fill-opacity:1;"><g transform="translate(74.870413, 49.547491)"><path style="stroke:none" d="M 19.53125 -13.453125 C 18.519531 -10.273438 17.300781 -7.695312 15.875 -5.71875 C 14.445312 -3.75 12.953125 -2.3125 11.390625 -1.40625 C 9.835938 -0.5 8.359375 -0.046875 6.953125 -0.046875 C 5.140625 -0.046875 3.585938 -0.734375 2.296875 -2.109375 C 1.015625 -3.484375 0.375 -5.332031 0.375 -7.65625 C 0.375 -9.03125 0.679688 -10.738281 1.296875 -12.78125 C 1.910156 -14.820312 2.710938 -17.023438 3.703125 -19.390625 C 4.703125 -21.765625 5.742188 -24.171875 6.828125 -26.609375 C 7.921875 -29.054688 8.960938 -31.390625 9.953125 -33.609375 C 10.953125 -35.835938 11.757812 -37.820312 12.375 -39.5625 C 12.988281 -41.300781 13.296875 -42.640625 13.296875 -43.578125 C 13.296875 -43.941406 13.257812 -44.191406 13.1875 -44.328125 C 13.363281 -44.367188 13.539062 -44.394531 13.71875 -44.40625 C 13.90625 -44.425781 14.085938 -44.4375 14.265625 -44.4375 C 15.210938 -44.4375 16.21875 -44.238281 17.28125 -43.84375 C 18.351562 -43.445312 19.265625 -42.882812 20.015625 -42.15625 C 20.773438 -41.4375 21.15625 -40.585938 21.15625 -39.609375 C 21.15625 -38.847656 20.796875 -37.742188 20.078125 -36.296875 C 19.359375 -34.859375 18.488281 -33.234375 17.46875 -31.421875 C 16.457031 -29.609375 15.519531 -27.726562 14.65625 -25.78125 C 14.21875 -24.800781 13.734375 -23.640625 13.203125 -22.296875 C 12.679688 -20.960938 12.164062 -19.570312 11.65625 -18.125 C 11.15625 -16.675781 10.75 -15.300781 10.4375 -14 C 10.132812 -12.695312 9.984375 -11.613281 9.984375 -10.75 C 9.984375 -9.519531 10.34375 -8.90625 11.0625 -8.90625 C 12.039062 -8.90625 13.054688 -9.144531 14.109375 -9.625 C 15.160156 -10.113281 16.15625 -10.710938 17.09375 -11.421875 C 18.03125 -12.128906 18.84375 -12.804688 19.53125 -13.453125 Z M 19.53125 -13.453125 "/></g></g><g style="fill:#013e80;fill-opacity:1;"><g transform="translate(92.66895, 49.547491)"><path style="stroke:none" d="M 29.09375 -43.6875 C 30.351562 -42.675781 31.253906 -41.71875 31.796875 -40.8125 C 32.335938 -39.90625 32.609375 -39.050781 32.609375 -38.25 C 32.609375 -37.0625 32.082031 -36.03125 31.03125 -35.15625 C 29.988281 -34.289062 28.6875 -33.625 27.125 -33.15625 C 25.570312 -32.6875 24.035156 -32.453125 22.515625 -32.453125 C 21.328125 -32.453125 20.28125 -32.867188 19.375 -33.703125 C 18.46875 -34.535156 17.832031 -35.457031 17.46875 -36.46875 C 18.84375 -36.863281 20.171875 -37.285156 21.453125 -37.734375 C 22.742188 -38.191406 24.015625 -38.875 25.265625 -39.78125 C 26.515625 -40.6875 27.789062 -41.988281 29.09375 -43.6875 Z M 20.5625 -20.34375 C 21.175781 -20.53125 21.71875 -20.625 22.1875 -20.625 C 23.488281 -20.625 24.59375 -20.195312 25.5 -19.34375 C 26.40625 -18.5 26.859375 -17.550781 26.859375 -16.5 C 26.859375 -16.28125 26.703125 -15.851562 26.390625 -15.21875 C 26.085938 -14.582031 25.726562 -13.847656 25.3125 -13.015625 C 24.894531 -12.191406 24.53125 -11.328125 24.21875 -10.421875 C 23.914062 -9.515625 23.765625 -8.664062 23.765625 -7.875 C 23.765625 -7.507812 23.960938 -7.328125 24.359375 -7.328125 C 24.765625 -7.328125 25.300781 -7.503906 25.96875 -7.859375 C 26.632812 -8.222656 27.300781 -8.675781 27.96875 -9.21875 C 28.644531 -9.769531 29.179688 -10.316406 29.578125 -10.859375 L 29.6875 -10.859375 C 29.613281 -9.660156 29.359375 -8.425781 28.921875 -7.15625 C 28.484375 -5.894531 27.875 -4.722656 27.09375 -3.640625 C 26.320312 -2.554688 25.398438 -1.675781 24.328125 -1 C 23.265625 -0.332031 22.046875 0 20.671875 0 C 19.296875 0 18.207031 -0.503906 17.40625 -1.515625 C 16.613281 -2.523438 16.078125 -3.648438 15.796875 -4.890625 C 14.421875 -3.253906 13.023438 -2.066406 11.609375 -1.328125 C 10.203125 -0.585938 8.863281 -0.21875 7.59375 -0.21875 C 5.71875 -0.21875 4.132812 -0.96875 2.84375 -2.46875 C 1.5625 -3.96875 0.921875 -6.003906 0.921875 -8.578125 C 0.921875 -11.035156 1.390625 -13.347656 2.328125 -15.515625 C 3.273438 -17.691406 4.539062 -19.644531 6.125 -21.375 C 7.71875 -23.113281 9.484375 -24.613281 11.421875 -25.875 C 13.359375 -27.144531 15.328125 -28.113281 17.328125 -28.78125 C 19.335938 -29.457031 21.234375 -29.796875 23.015625 -29.796875 C 24.710938 -29.796875 26.066406 -29.441406 27.078125 -28.734375 C 28.085938 -28.023438 28.59375 -27.054688 28.59375 -25.828125 C 28.59375 -24.566406 28.035156 -23.191406 26.921875 -21.703125 C 25.796875 -22.023438 24.707031 -22.1875 23.65625 -22.1875 C 21.738281 -22.1875 19.96875 -21.753906 18.34375 -20.890625 C 16.71875 -20.023438 15.304688 -18.945312 14.109375 -17.65625 C 12.910156 -16.375 11.976562 -15.09375 11.3125 -13.8125 C 10.644531 -12.53125 10.3125 -11.472656 10.3125 -10.640625 C 10.3125 -9.734375 10.691406 -9.28125 11.453125 -9.28125 C 12.171875 -9.28125 13 -9.640625 13.9375 -10.359375 C 14.882812 -11.085938 15.835938 -12.03125 16.796875 -13.1875 C 17.753906 -14.34375 18.578125 -15.550781 19.265625 -16.8125 C 19.953125 -18.082031 20.382812 -19.257812 20.5625 -20.34375 Z M 20.5625 -20.34375 "/></g></g><g style="fill:#013e80;fill-opacity:1;"><g transform="translate(122.188452, 49.547491)"><path style="stroke:none" d=""/></g></g><g style="fill:#013e80;fill-opacity:1;"><g transform="translate(134.723404, 49.547491)"><path style="stroke:none" d="M 29.90625 -35.8125 C 29.03125 -35.8125 27.96875 -35.519531 26.71875 -34.9375 C 25.476562 -34.363281 24.238281 -33.5625 23 -32.53125 C 21.769531 -31.5 20.691406 -30.320312 19.765625 -29 C 18.847656 -27.6875 18.265625 -26.269531 18.015625 -24.75 C 19.460938 -24.820312 20.945312 -25.207031 22.46875 -25.90625 C 23.988281 -26.613281 25.40625 -27.492188 26.71875 -28.546875 C 28.039062 -29.597656 29.109375 -30.65625 29.921875 -31.71875 C 30.742188 -32.78125 31.15625 -33.691406 31.15625 -34.453125 C 31.15625 -35.359375 30.738281 -35.8125 29.90625 -35.8125 Z M 13.34375 -14.703125 C 13.34375 -13.691406 13.722656 -12.769531 14.484375 -11.9375 C 15.242188 -11.101562 16.1875 -10.453125 17.3125 -9.984375 C 18.4375 -9.515625 19.519531 -9.28125 20.5625 -9.28125 C 21.832031 -9.28125 22.945312 -9.601562 23.90625 -10.25 C 24.863281 -10.90625 25.34375 -11.847656 25.34375 -13.078125 C 25.34375 -14.128906 24.867188 -15.097656 23.921875 -15.984375 C 22.984375 -16.867188 21.539062 -17.3125 19.59375 -17.3125 C 17.164062 -17.3125 15.082031 -16.441406 13.34375 -14.703125 Z M -0.375 -6.625 C -0.375 -7.125 -0.140625 -8.023438 0.328125 -9.328125 C 0.796875 -10.628906 1.410156 -12.210938 2.171875 -14.078125 C 2.929688 -15.941406 3.769531 -17.957031 4.6875 -20.125 C 5.613281 -22.300781 6.535156 -24.5 7.453125 -26.71875 C 8.378906 -28.945312 9.222656 -31.082031 9.984375 -33.125 C 10.742188 -35.164062 11.359375 -36.984375 11.828125 -38.578125 C 12.296875 -40.171875 12.53125 -41.421875 12.53125 -42.328125 C 12.53125 -42.648438 12.519531 -42.984375 12.5 -43.328125 C 12.488281 -43.671875 12.460938 -44.023438 12.421875 -44.390625 C 12.421875 -44.640625 12.601562 -44.765625 12.96875 -44.765625 C 14.5625 -44.765625 16.007812 -44.546875 17.3125 -44.109375 C 18.613281 -43.679688 19.988281 -42.867188 21.4375 -41.671875 C 22.050781 -42.109375 22.875 -42.539062 23.90625 -42.96875 C 24.9375 -43.40625 26.019531 -43.804688 27.15625 -44.171875 C 28.300781 -44.535156 29.394531 -44.816406 30.4375 -45.015625 C 31.488281 -45.210938 32.34375 -45.3125 33 -45.3125 C 34.84375 -45.3125 36.421875 -44.90625 37.734375 -44.09375 C 39.054688 -43.28125 40.070312 -42.203125 40.78125 -40.859375 C 41.488281 -39.523438 41.84375 -38.023438 41.84375 -36.359375 C 41.84375 -34.296875 41.351562 -32.367188 40.375 -30.578125 C 39.394531 -28.785156 38.125 -27.210938 36.5625 -25.859375 C 35.007812 -24.503906 33.367188 -23.390625 31.640625 -22.515625 C 33.015625 -21.109375 34 -19.632812 34.59375 -18.09375 C 35.1875 -16.5625 35.484375 -15.050781 35.484375 -13.5625 C 35.484375 -11.789062 35.113281 -10.09375 34.375 -8.46875 C 33.632812 -6.84375 32.601562 -5.394531 31.28125 -4.125 C 29.957031 -2.851562 28.4375 -1.851562 26.71875 -1.125 C 25 -0.40625 23.164062 -0.046875 21.21875 -0.046875 C 19.476562 -0.046875 17.691406 -0.390625 15.859375 -1.078125 C 14.035156 -1.765625 12.238281 -2.890625 10.46875 -4.453125 C 10.289062 -4.453125 10.035156 -4.125 9.703125 -3.46875 C 9.378906 -2.820312 9.09375 -2.085938 8.84375 -1.265625 C 8.59375 -0.453125 8.429688 0.203125 8.359375 0.703125 C 7.015625 0.703125 5.671875 0.453125 4.328125 -0.046875 C 2.992188 -0.554688 1.875 -1.351562 0.96875 -2.4375 C 0.0703125 -3.519531 -0.375 -4.914062 -0.375 -6.625 Z M -0.375 -6.625 "/></g></g><g style="fill:#013e80;fill-opacity:1;"><g transform="translate(171.297182, 49.547491)"><path style="stroke:none" d="M 20.5625 -20.34375 C 21.175781 -20.53125 21.71875 -20.625 22.1875 -20.625 C 23.488281 -20.625 24.59375 -20.195312 25.5 -19.34375 C 26.40625 -18.5 26.859375 -17.550781 26.859375 -16.5 C 26.859375 -16.28125 26.703125 -15.851562 26.390625 -15.21875 C 26.085938 -14.582031 25.726562 -13.847656 25.3125 -13.015625 C 24.894531 -12.191406 24.53125 -11.328125 24.21875 -10.421875 C 23.914062 -9.515625 23.765625 -8.664062 23.765625 -7.875 C 23.765625 -7.507812 23.960938 -7.328125 24.359375 -7.328125 C 24.765625 -7.328125 25.300781 -7.503906 25.96875 -7.859375 C 26.632812 -8.222656 27.300781 -8.675781 27.96875 -9.21875 C 28.644531 -9.769531 29.179688 -10.316406 29.578125 -10.859375 L 29.6875 -10.859375 C 29.613281 -9.660156 29.359375 -8.425781 28.921875 -7.15625 C 28.484375 -5.894531 27.875 -4.722656 27.09375 -3.640625 C 26.320312 -2.554688 25.398438 -1.675781 24.328125 -1 C 23.265625 -0.332031 22.046875 0 20.671875 0 C 19.296875 0 18.207031 -0.503906 17.40625 -1.515625 C 16.613281 -2.523438 16.078125 -3.648438 15.796875 -4.890625 C 14.421875 -3.253906 13.023438 -2.066406 11.609375 -1.328125 C 10.203125 -0.585938 8.863281 -0.21875 7.59375 -0.21875 C 5.71875 -0.21875 4.132812 -0.96875 2.84375 -2.46875 C 1.5625 -3.96875 0.921875 -6.003906 0.921875 -8.578125 C 0.921875 -11.035156 1.390625 -13.347656 2.328125 -15.515625 C 3.273438 -17.691406 4.539062 -19.644531 6.125 -21.375 C 7.71875 -23.113281 9.484375 -24.613281 11.421875 -25.875 C 13.359375 -27.144531 15.328125 -28.113281 17.328125 -28.78125 C 19.335938 -29.457031 21.234375 -29.796875 23.015625 -29.796875 C 24.710938 -29.796875 26.066406 -29.441406 27.078125 -28.734375 C 28.085938 -28.023438 28.59375 -27.054688 28.59375 -25.828125 C 28.59375 -24.566406 28.035156 -23.191406 26.921875 -21.703125 C 25.796875 -22.023438 24.707031 -22.1875 23.65625 -22.1875 C 21.738281 -22.1875 19.96875 -21.753906 18.34375 -20.890625 C 16.71875 -20.023438 15.304688 -18.945312 14.109375 -17.65625 C 12.910156 -16.375 11.976562 -15.09375 11.3125 -13.8125 C 10.644531 -12.53125 10.3125 -11.472656 10.3125 -10.640625 C 10.3125 -9.734375 10.691406 -9.28125 11.453125 -9.28125 C 12.171875 -9.28125 13 -9.640625 13.9375 -10.359375 C 14.882812 -11.085938 15.835938 -12.03125 16.796875 -13.1875 C 17.753906 -14.34375 18.578125 -15.550781 19.265625 -16.8125 C 19.953125 -18.082031 20.382812 -19.257812 20.5625 -20.34375 Z M 20.5625 -20.34375 "/></g></g><g style="fill:#013e80;fill-opacity:1;"><g transform="translate(200.816672, 49.547491)"><path style="stroke:none" d="M -0.875 -4.5625 C -0.875 -5.207031 -0.632812 -6.191406 -0.15625 -7.515625 C 0.3125 -8.835938 0.914062 -10.359375 1.65625 -12.078125 C 2.394531 -13.796875 3.195312 -15.582031 4.0625 -17.4375 C 4.9375 -19.300781 5.757812 -21.140625 6.53125 -22.953125 C 7.3125 -24.765625 7.984375 -26.398438 8.546875 -27.859375 C 9.109375 -29.328125 9.441406 -30.515625 9.546875 -31.421875 C 11.429688 -31.421875 12.90625 -30.734375 13.96875 -29.359375 C 15.039062 -27.984375 15.613281 -26.335938 15.6875 -24.421875 C 16.15625 -24.742188 16.703125 -25.210938 17.328125 -25.828125 C 17.960938 -26.441406 18.695312 -27.070312 19.53125 -27.71875 C 20.363281 -28.375 21.273438 -28.921875 22.265625 -29.359375 C 23.265625 -29.796875 24.363281 -30.015625 25.5625 -30.015625 C 26.539062 -30.015625 27.28125 -29.640625 27.78125 -28.890625 C 28.289062 -28.148438 28.546875 -27.203125 28.546875 -26.046875 C 28.546875 -24.773438 28.21875 -23.378906 27.5625 -21.859375 C 26.914062 -20.347656 25.921875 -18.945312 24.578125 -17.65625 C 23.242188 -16.375 21.546875 -15.425781 19.484375 -14.8125 C 20.097656 -15.644531 20.566406 -16.613281 20.890625 -17.71875 C 21.210938 -18.820312 21.375 -19.734375 21.375 -20.453125 C 21.375 -21.398438 20.941406 -21.875 20.078125 -21.875 C 19.171875 -21.875 17.992188 -21.382812 16.546875 -20.40625 C 15.097656 -19.425781 13.832031 -18.140625 12.75 -16.546875 C 12.28125 -15.828125 11.71875 -14.78125 11.0625 -13.40625 C 10.414062 -12.03125 9.765625 -10.523438 9.109375 -8.890625 C 8.460938 -7.265625 7.867188 -5.679688 7.328125 -4.140625 C 6.785156 -2.609375 6.367188 -1.300781 6.078125 -0.21875 C 5.242188 -0.21875 4.285156 -0.328125 3.203125 -0.546875 C 2.117188 -0.765625 1.164062 -1.1875 0.34375 -1.8125 C -0.46875 -2.445312 -0.875 -3.363281 -0.875 -4.5625 Z M -0.875 -4.5625 "/></g></g><g style="fill:#013e80;fill-opacity:1;"><g transform="translate(224.746998, 49.547491)"><path style="stroke:none" d="M 20.5625 -20.34375 C 21.175781 -20.53125 21.71875 -20.625 22.1875 -20.625 C 23.488281 -20.625 24.59375 -20.195312 25.5 -19.34375 C 26.40625 -18.5 26.859375 -17.550781 26.859375 -16.5 C 26.859375 -16.28125 26.703125 -15.851562 26.390625 -15.21875 C 26.085938 -14.582031 25.726562 -13.847656 25.3125 -13.015625 C 24.894531 -12.191406 24.53125 -11.328125 24.21875 -10.421875 C 23.914062 -9.515625 23.765625 -8.664062 23.765625 -7.875 C 23.765625 -7.507812 23.960938 -7.328125 24.359375 -7.328125 C 24.765625 -7.328125 25.300781 -7.503906 25.96875 -7.859375 C 26.632812 -8.222656 27.300781 -8.675781 27.96875 -9.21875 C 28.644531 -9.769531 29.179688 -10.316406 29.578125 -10.859375 L 29.6875 -10.859375 C 29.613281 -9.660156 29.359375 -8.425781 28.921875 -7.15625 C 28.484375 -5.894531 27.875 -4.722656 27.09375 -3.640625 C 26.320312 -2.554688 25.398438 -1.675781 24.328125 -1 C 23.265625 -0.332031 22.046875 0 20.671875 0 C 19.296875 0 18.207031 -0.503906 17.40625 -1.515625 C 16.613281 -2.523438 16.078125 -3.648438 15.796875 -4.890625 C 14.421875 -3.253906 13.023438 -2.066406 11.609375 -1.328125 C 10.203125 -0.585938 8.863281 -0.21875 7.59375 -0.21875 C 5.71875 -0.21875 4.132812 -0.96875 2.84375 -2.46875 C 1.5625 -3.96875 0.921875 -6.003906 0.921875 -8.578125 C 0.921875 -11.035156 1.390625 -13.347656 2.328125 -15.515625 C 3.273438 -17.691406 4.539062 -19.644531 6.125 -21.375 C 7.71875 -23.113281 9.484375 -24.613281 11.421875 -25.875 C 13.359375 -27.144531 15.328125 -28.113281 17.328125 -28.78125 C 19.335938 -29.457031 21.234375 -29.796875 23.015625 -29.796875 C 24.710938 -29.796875 26.066406 -29.441406 27.078125 -28.734375 C 28.085938 -28.023438 28.59375 -27.054688 28.59375 -25.828125 C 28.59375 -24.566406 28.035156 -23.191406 26.921875 -21.703125 C 25.796875 -22.023438 24.707031 -22.1875 23.65625 -22.1875 C 21.738281 -22.1875 19.96875 -21.753906 18.34375 -20.890625 C 16.71875 -20.023438 15.304688 -18.945312 14.109375 -17.65625 C 12.910156 -16.375 11.976562 -15.09375 11.3125 -13.8125 C 10.644531 -12.53125 10.3125 -11.472656 10.3125 -10.640625 C 10.3125 -9.734375 10.691406 -9.28125 11.453125 -9.28125 C 12.171875 -9.28125 13 -9.640625 13.9375 -10.359375 C 14.882812 -11.085938 15.835938 -12.03125 16.796875 -13.1875 C 17.753906 -14.34375 18.578125 -15.550781 19.265625 -16.8125 C 19.953125 -18.082031 20.382812 -19.257812 20.5625 -20.34375 Z M 20.5625 -20.34375 "/></g></g><g style="fill:#013e80;fill-opacity:1;"><g transform="translate(254.266511, 49.547491)"><path style="stroke:none" d="M 19.703125 -14.875 C 19.441406 -13.601562 18.984375 -12.125 18.328125 -10.4375 C 17.679688 -8.757812 16.859375 -7.125 15.859375 -5.53125 C 14.867188 -3.9375 13.703125 -2.613281 12.359375 -1.5625 C 11.023438 -0.519531 9.546875 0 7.921875 0 C 6.617188 0 5.46875 -0.347656 4.46875 -1.046875 C 3.476562 -1.753906 2.710938 -2.6875 2.171875 -3.84375 C 1.628906 -5.007812 1.359375 -6.28125 1.359375 -7.65625 C 1.359375 -9.28125 1.609375 -10.957031 2.109375 -12.6875 C 2.617188 -14.425781 3.21875 -16.109375 3.90625 -17.734375 C 4.59375 -19.367188 5.207031 -20.835938 5.75 -22.140625 C 5.03125 -22.535156 4.5 -23.101562 4.15625 -23.84375 C 3.8125 -24.59375 3.640625 -25.347656 3.640625 -26.109375 C 3.640625 -27.046875 3.851562 -27.800781 4.28125 -28.375 C 5.039062 -28.375 5.875 -28.4375 6.78125 -28.5625 C 7.6875 -28.695312 8.320312 -28.816406 8.6875 -28.921875 C 9.945312 -31.160156 11.066406 -33.394531 12.046875 -35.625 C 13.023438 -37.851562 13.835938 -40.015625 14.484375 -42.109375 C 15.390625 -42.078125 16.347656 -41.832031 17.359375 -41.375 C 18.378906 -40.925781 19.238281 -40.3125 19.9375 -39.53125 C 20.644531 -38.75 21 -37.851562 21 -36.84375 C 21 -36.082031 20.78125 -35.296875 20.34375 -34.484375 C 19.914062 -33.671875 19.457031 -32.828125 18.96875 -31.953125 C 18.476562 -31.085938 18.144531 -30.222656 17.96875 -29.359375 C 18.101562 -29.359375 18.234375 -29.363281 18.359375 -29.375 C 18.492188 -29.394531 18.632812 -29.40625 18.78125 -29.40625 C 20.082031 -29.40625 21.054688 -29.160156 21.703125 -28.671875 C 22.359375 -28.191406 22.789062 -27.585938 23 -26.859375 C 23.21875 -26.140625 23.328125 -25.4375 23.328125 -24.75 C 23.328125 -24.28125 23.304688 -23.851562 23.265625 -23.46875 C 23.234375 -23.09375 23.1875 -22.8125 23.125 -22.625 C 22.644531 -22.695312 22.179688 -22.734375 21.734375 -22.734375 C 21.285156 -22.734375 20.820312 -22.734375 20.34375 -22.734375 C 19.332031 -22.734375 18.320312 -22.6875 17.3125 -22.59375 C 16.300781 -22.507812 15.25 -22.359375 14.15625 -22.140625 C 13.90625 -21.742188 13.546875 -21.066406 13.078125 -20.109375 C 12.609375 -19.148438 12.109375 -18.0625 11.578125 -16.84375 C 11.054688 -15.632812 10.613281 -14.441406 10.25 -13.265625 C 9.894531 -12.085938 9.71875 -11.082031 9.71875 -10.25 C 9.71875 -9.09375 10.222656 -8.515625 11.234375 -8.515625 C 11.953125 -8.515625 12.828125 -8.800781 13.859375 -9.375 C 14.890625 -9.957031 15.929688 -10.726562 16.984375 -11.6875 C 18.035156 -12.644531 18.941406 -13.707031 19.703125 -14.875 Z M 19.703125 -14.875 "/></g></g><g style="fill:#013e80;fill-opacity:1;"><g transform="translate(274.344102, 49.547491)"><path style="stroke:none" d="M 19.15625 -19.859375 C 19.15625 -21.054688 18.816406 -21.929688 18.140625 -22.484375 C 17.472656 -23.046875 16.671875 -23.328125 15.734375 -23.328125 C 14.941406 -23.328125 14.101562 -23.15625 13.21875 -22.8125 C 12.332031 -22.46875 11.488281 -21.972656 10.6875 -21.328125 L 11.015625 -21.328125 C 11.953125 -21.328125 12.875 -21.125 13.78125 -20.71875 C 14.6875 -20.320312 15.570312 -19.675781 16.4375 -18.78125 C 15.03125 -18.375 13.773438 -17.628906 12.671875 -16.546875 C 11.566406 -15.460938 10.707031 -14.296875 10.09375 -13.046875 C 9.476562 -11.796875 9.171875 -10.6875 9.171875 -9.71875 C 9.171875 -9.101562 9.316406 -8.59375 9.609375 -8.1875 C 9.898438 -7.789062 10.351562 -7.59375 10.96875 -7.59375 C 11.832031 -7.59375 12.734375 -8.007812 13.671875 -8.84375 C 14.609375 -9.675781 15.492188 -10.734375 16.328125 -12.015625 C 17.160156 -13.304688 17.835938 -14.644531 18.359375 -16.03125 C 18.890625 -17.425781 19.15625 -18.703125 19.15625 -19.859375 Z M 1.03125 -7.703125 C 1.03125 -9.265625 1.226562 -10.75 1.625 -12.15625 C 2.019531 -13.5625 2.5625 -14.847656 3.25 -16.015625 L 3.25 -16.5 C 3.25 -18.488281 3.742188 -20.332031 4.734375 -22.03125 C 5.734375 -23.726562 7.046875 -25.21875 8.671875 -26.5 C 10.304688 -27.789062 12.0625 -28.785156 13.9375 -29.484375 C 15.820312 -30.191406 17.648438 -30.546875 19.421875 -30.546875 C 20.941406 -30.546875 22.328125 -30.253906 23.578125 -29.671875 C 24.828125 -29.097656 25.820312 -28.175781 26.5625 -26.90625 C 27.300781 -25.644531 27.671875 -24.003906 27.671875 -21.984375 C 27.671875 -20.128906 27.375 -18.179688 26.78125 -16.140625 C 26.1875 -14.097656 25.335938 -12.117188 24.234375 -10.203125 C 23.128906 -8.285156 21.816406 -6.554688 20.296875 -5.015625 C 18.773438 -3.484375 17.082031 -2.253906 15.21875 -1.328125 C 13.351562 -0.410156 11.351562 0.046875 9.21875 0.046875 C 7.882812 0.046875 6.582031 -0.296875 5.3125 -0.984375 C 4.050781 -1.671875 3.019531 -2.597656 2.21875 -3.765625 C 1.425781 -4.941406 1.03125 -6.253906 1.03125 -7.703125 Z M 1.03125 -7.703125 "/></g></g></g></g></g></svg>